<svg width="42" height="46" viewBox="0 0 42 46" fill="none" xmlns="http://www.w3.org/2000/svg">
<path d="M37.8181 0H3.3056C1.47927 0 0 1.47927 0 3.3056V9.68354C0 11.5099 1.47927 12.9891 3.3056 12.9891H37.8181C39.6445 12.9891 41.1237 11.5099 41.1237 9.68354V3.3056C41.1237 1.47927 39.6445 0 37.8181 0ZM11.1401 9.16579C11.3449 9.83715 10.9637 10.5483 10.2923 10.7532C9.91681 10.867 9.51285 10.8044 9.19424 10.5825L7.94824 9.67216L6.70224 10.5825C6.12191 10.9864 5.33106 10.8442 4.92711 10.2639C4.70522 9.94525 4.63695 9.5413 4.75074 9.16579L5.22866 7.69221L3.98265 6.78189C3.42508 6.36087 3.31129 5.56434 3.738 5.00107C3.97127 4.68815 4.34109 4.50609 4.72798 4.5004H6.27552L6.74775 3.02681C6.91844 2.50907 7.40773 2.15632 7.95393 2.15632C9.18855 2.13356 9.29665 3.64128 9.63233 4.49471H11.1799C11.7261 4.49471 12.2097 4.85315 12.3804 5.37089C12.7786 6.54293 11.379 7.1005 10.6678 7.68652L11.1457 9.16011L11.1401 9.16579ZM16.3232 8.41478C16.3232 7.95962 16.693 7.5898 17.1482 7.5898H34.706C35.1611 7.5898 35.531 7.95962 35.531 8.41478C35.531 8.86994 35.1611 9.23976 34.706 9.23976H17.1482C16.693 9.23976 16.3232 8.86994 16.3232 8.41478ZM34.7117 5.39365H17.1539C16.6987 5.38796 16.3346 5.01245 16.3403 4.5516C16.3459 4.10782 16.7101 3.74369 17.1539 3.738H34.7117C35.1668 3.74369 35.531 4.12489 35.5253 4.58005C35.5196 5.02383 35.1611 5.38227 34.7117 5.39365Z" fill="#174034"/>
<path d="M33.7442 16.335H7.3847C5.55837 16.335 4.0791 17.8142 4.0791 19.6406V26.0185C4.0791 27.8448 5.55837 29.3241 7.3847 29.3241H33.7442C35.5705 29.3241 37.0498 27.8448 37.0498 26.0185V19.6463C37.0498 17.8199 35.5705 16.3407 33.7442 16.3407V16.335ZM14.1609 24.7497C14.1609 24.2946 14.525 23.9248 14.9802 23.9248C14.9802 23.9248 14.9802 23.9248 14.9859 23.9248H32.5437C32.9989 23.9248 33.3687 24.2946 33.3687 24.7497C33.3687 25.2049 32.9989 25.5747 32.5437 25.5747H14.9859C14.5307 25.5747 14.1609 25.2049 14.1609 24.7497ZM32.5437 21.7286H14.9859C14.5307 21.7286 14.1609 21.3588 14.1609 20.9036C14.1609 20.4485 14.5307 20.0787 14.9859 20.0787H32.5437C32.9989 20.0843 33.363 20.4599 33.3573 20.9207C33.3516 21.3645 32.9875 21.7286 32.5437 21.7343V21.7286Z" fill="#174034"/>
<path d="M29.7447 32.6689H11.3847C9.55838 32.6689 8.0791 34.1482 8.0791 35.9745V42.3525C8.0791 44.1788 9.55838 45.6581 11.3847 45.6581H29.7447C31.5711 45.6581 33.0503 44.1788 33.0503 42.3525V35.9802C33.0503 34.1539 31.5711 32.6746 29.7447 32.6746V32.6689ZM18.0699 41.9087C17.6147 41.903 17.2506 41.5275 17.2563 41.0723C17.262 40.6229 17.6261 40.2644 18.0699 40.2587H29.2384C29.6935 40.2644 30.0577 40.6399 30.052 41.0951C30.0463 41.5446 29.6822 41.903 29.2384 41.9087H18.0699ZM29.2384 38.0683H18.0699C17.6147 38.0626 17.2506 37.6871 17.2563 37.2319C17.262 36.7825 17.6261 36.424 18.0699 36.4183H29.2384C29.6935 36.424 30.0577 36.7995 30.052 37.2604C30.0463 37.7098 29.6822 38.0683 29.2384 38.074V38.0683Z" fill="#174034"/>
<path d="M8.14144 5.27987L7.95369 4.69385L7.75455 5.29125C7.49853 6.12192 6.67355 6.21295 5.92822 6.16174C6.57114 6.56001 7.17423 7.11189 6.89544 7.94825L6.70769 8.53426L7.21405 8.17014C7.90248 7.65239 8.63643 8.05066 9.20538 8.53426C8.91521 7.84014 8.7616 7.03793 9.47279 6.53156L9.97915 6.16174C9.22814 6.21295 8.40885 6.1276 8.15282 5.28556L8.14144 5.27987Z" fill="#174034"/>
</svg>
