<svg width="76" height="71" viewBox="0 0 76 71" fill="none" xmlns="http://www.w3.org/2000/svg">
<path d="M12.356 7.11549C12.1996 8.35183 11.7452 9.60308 11.3282 10.5639C11.1271 11.0405 10.9185 11.4501 10.7845 11.7406C10.643 12.0311 10.5461 12.1949 10.5461 12.1949C10.5461 12.1949 10.1291 11.8896 9.70453 11.264C9.28 10.6383 8.86292 9.685 8.9374 8.38163C9.00443 7.07825 9.60026 5.71529 10.2035 4.69493C10.3599 4.44171 10.5089 4.20338 10.6504 4.00229C10.7919 3.79375 10.926 3.61499 11.0377 3.47349C11.2686 3.18302 11.4101 3.01172 11.4101 3.01172C11.4101 3.01172 11.7452 3.42135 12.0134 4.13634C12.1549 4.50129 12.2666 4.93327 12.3411 5.43227C12.4155 5.93128 12.4304 6.49732 12.356 7.11549Z" fill="#174034"/>
<path d="M7.202 16.217C7.41054 17.5726 7.27648 19.0323 7.12007 20.1793C7.08283 20.4698 7.04559 20.7304 6.99346 20.9688C6.95622 21.2071 6.91898 21.4156 6.88919 21.5869C6.82215 21.937 6.77002 22.1455 6.77002 22.1455C6.77002 22.1455 6.23377 21.9444 5.60071 21.4008C5.2879 21.1252 4.94529 20.7677 4.64738 20.2985C4.35691 19.8367 4.08879 19.2558 3.94728 18.5557C3.64192 17.148 3.86535 15.5318 4.20051 14.288C4.36436 13.6624 4.55801 13.1336 4.69952 12.7612C4.84102 12.3888 4.95274 12.1729 4.95274 12.1729C4.95274 12.1729 5.07191 12.2548 5.25066 12.4186C5.4294 12.5825 5.67518 12.8357 5.93586 13.1709C6.18909 13.506 6.45721 13.9231 6.68065 14.437C6.90408 14.9435 7.09773 15.5393 7.202 16.2096V16.217Z" fill="#174034"/>
<path d="M4.57272 26.3527C5.1909 27.738 5.48881 29.317 5.71969 30.5682C5.77928 30.881 5.80907 31.1789 5.85376 31.4322C5.89844 31.6928 5.93568 31.9237 5.95803 32.1174C6.01016 32.5046 6.02506 32.7355 6.02506 32.7355C6.02506 32.7355 5.86865 32.7355 5.60798 32.6834C5.3473 32.6387 4.98236 32.5493 4.55783 32.3706C4.1333 32.1918 3.65664 31.9312 3.17997 31.5439C2.71076 31.1417 2.26389 30.6129 1.8617 29.8979C1.09457 28.4679 0.841344 26.6134 0.848792 25.1685C0.848792 24.8036 0.86369 24.4684 0.886033 24.163C0.908377 23.8651 0.930719 23.5896 0.960511 23.3661C1.02009 22.9267 1.07223 22.666 1.07223 22.666C1.07223 22.666 1.66806 22.882 2.38305 23.4629C2.74055 23.7534 3.14273 24.1332 3.52257 24.6099C3.89497 25.0866 4.27481 25.6601 4.57272 26.3527Z" fill="#174034"/>
<path d="M5.10895 36.9222C6.23357 38.1362 7.10497 39.6407 7.79018 40.8323C7.8721 40.9887 7.94658 41.1302 8.02851 41.2718C8.10299 41.4133 8.17747 41.5399 8.2445 41.6739C8.37856 41.9272 8.49772 42.1506 8.5871 42.3368C8.77329 42.7166 8.88501 42.9401 8.88501 42.9401C8.88501 42.9401 8.72116 42.9922 8.43069 43.0369C8.14023 43.089 7.73059 43.1263 7.23159 43.1039C6.25592 43.0443 4.89296 42.7315 3.58958 41.5473C2.29365 40.3706 1.34033 38.5458 0.833873 37.0116C0.692364 36.6317 0.610439 36.2593 0.521064 35.9316C0.439138 35.5965 0.364659 35.306 0.319972 35.0602C0.230597 34.5612 0.193359 34.2559 0.193359 34.2559C0.193359 34.2559 0.364659 34.2633 0.655126 34.3154C0.945593 34.375 1.35522 34.4793 1.82444 34.658C2.28621 34.8442 2.8448 35.1049 3.40339 35.4699C3.68641 35.6561 3.96198 35.8646 4.245 36.1104C4.53546 36.3487 4.82593 36.6168 5.1015 36.9222H5.10895Z" fill="#174034"/>
<path d="M8.99686 46.7685C9.1905 46.8728 9.3767 46.9919 9.57035 47.1111C9.76399 47.2303 9.95019 47.3494 10.1364 47.4835C10.5013 47.7367 10.8514 48.0123 11.2089 48.273C11.3802 48.407 11.5515 48.5485 11.7079 48.6826C11.7898 48.7496 11.8717 48.8241 11.9462 48.8911C12.0281 48.9582 12.1101 49.0252 12.192 49.0922C12.5048 49.3603 12.8027 49.621 13.0708 49.8742C13.6369 50.3509 14.0763 50.8127 14.4189 51.118C14.7466 51.4308 14.9328 51.6319 14.9328 51.6319C14.9328 51.6319 14.7839 51.7437 14.5083 51.8926C14.2327 52.0416 13.8305 52.2278 13.3092 52.3767C12.7953 52.5257 12.1548 52.6374 11.4398 52.6076C10.7248 52.5778 9.8906 52.4289 9.02665 52.0416C7.2764 51.2744 5.67511 49.7029 4.64731 48.2953C4.37919 47.9453 4.1632 47.6026 3.9621 47.2898C3.76101 46.977 3.58971 46.7015 3.4631 46.4631C3.20242 45.979 3.06836 45.6811 3.06836 45.6811C3.06836 45.6811 3.24711 45.629 3.55992 45.5917C3.87273 45.5545 4.32705 45.5172 4.87074 45.5545C5.14631 45.5694 5.43678 45.5992 5.74959 45.6513C6.06985 45.7034 6.405 45.7705 6.75505 45.8673C7.1051 45.9641 7.4626 46.0833 7.82755 46.2397C8.20739 46.3886 8.59468 46.5674 8.98196 46.7834L8.99686 46.7685Z" fill="#174034"/>
<path d="M15.789 54.9316C16.7423 55.1103 17.6733 55.3933 18.5745 55.6987C19.0139 55.8625 19.4533 56.0115 19.8704 56.1679C20.0789 56.2498 20.28 56.3318 20.4737 56.4062C20.6748 56.4807 20.8684 56.5552 21.0472 56.6222C21.777 56.935 22.425 57.1734 22.8644 57.3819C23.0804 57.4862 23.2741 57.5458 23.3932 57.6053C23.5124 57.6575 23.5794 57.6798 23.5794 57.6798C23.5794 57.6798 23.4752 57.8511 23.2592 58.1044C23.0432 58.365 22.708 58.7151 22.2388 59.0651C21.777 59.4003 21.1887 59.7429 20.4364 59.9961C20.0566 60.1302 19.647 60.2121 19.2075 60.2717C18.7607 60.3238 18.2691 60.3462 17.7478 60.3015C17.2339 60.2493 16.6976 60.16 16.1614 60.0259C15.64 59.8769 15.1187 59.6982 14.6048 59.4897C14.1057 59.2662 13.6142 59.0204 13.1524 58.7672C12.6907 58.5065 12.2736 58.2161 11.8714 57.9405C11.7746 57.8735 11.6777 57.8064 11.5809 57.7394C11.4841 57.6649 11.3947 57.5979 11.3054 57.5234C11.1266 57.3894 10.9627 57.2553 10.8063 57.1287C10.4935 56.868 10.218 56.6371 10.002 56.4286C9.57 56.019 9.32422 55.7508 9.32422 55.7508C9.32422 55.7508 9.49552 55.6391 9.80833 55.4976C10.1211 55.3561 10.5755 55.1773 11.1489 55.0358C11.432 54.9614 11.7448 54.8943 12.0874 54.8496C12.43 54.7975 12.8024 54.7603 13.1897 54.7379C13.5844 54.723 13.994 54.7305 14.426 54.7603C14.8654 54.7826 15.3197 54.8422 15.789 54.9316Z" fill="#174034"/>
<path d="M25.0096 60.3976C25.5235 60.3008 26.0449 60.2337 26.5588 60.1891C27.0801 60.1295 27.594 60.0848 28.1005 60.0699C28.6069 60.0252 29.106 60.0103 29.5752 60.0103C30.0518 59.9805 30.5062 59.9656 30.9307 59.9656C31.7797 59.9284 32.5096 59.9358 33.031 59.906C33.5523 59.8911 33.8651 59.906 33.8651 59.906C33.8651 59.906 33.8353 60.122 33.7385 60.4646C33.6417 60.8072 33.4704 61.2913 33.165 61.8276C33.0161 62.0957 32.8299 62.3862 32.6064 62.6766C32.4947 62.8256 32.3681 62.9671 32.2341 63.1161C32.1 63.2576 31.951 63.3991 31.7946 63.5331C31.4744 63.8087 31.1094 64.0768 30.6775 64.3301C30.2529 64.5833 29.7688 64.7769 29.2251 64.9557C28.674 65.1419 28.1005 65.2462 27.4972 65.3281C26.8939 65.4175 26.2832 65.4175 25.6725 65.4026C25.0543 65.4026 24.4585 65.3206 23.8701 65.2313C23.2817 65.1568 22.7306 65.0153 22.2092 64.8812C21.9486 64.8216 21.6953 64.7471 21.457 64.6727C21.2187 64.5982 20.9952 64.5163 20.7867 64.4418C20.3622 64.2854 19.9823 64.1513 19.6844 64.0173C19.0811 63.7417 18.7236 63.5555 18.7236 63.5555C18.7236 63.5555 18.8577 63.3842 19.1258 63.131C19.3939 62.8777 19.7961 62.5351 20.3249 62.1925C20.8537 61.8499 21.524 61.4775 22.3061 61.1647C23.0806 60.8668 23.9967 60.5689 25.0096 60.405V60.3976Z" fill="#174034"/>
<path d="M14.3295 8.61969C13.2124 9.02932 12.2441 9.93051 11.5738 10.72C11.2461 11.1222 10.978 11.4871 10.8067 11.7627C10.6354 12.0383 10.5386 12.2021 10.5386 12.2021C10.5386 12.2021 11.0301 12.3883 11.7749 12.4404C12.5197 12.4926 13.5177 12.4255 14.553 11.9638C15.5808 11.4946 16.4969 10.7647 17.1597 10.1614C17.331 10.0124 17.48 9.86348 17.614 9.73687C17.7481 9.6028 17.8673 9.49109 17.9641 9.39426C18.1577 9.19317 18.262 9.07401 18.262 9.07401C18.262 9.07401 17.8375 8.77609 17.1374 8.55266C16.7873 8.44839 16.3628 8.35901 15.8861 8.35156C15.4169 8.35156 14.8807 8.41115 14.337 8.62714L14.3295 8.61969Z" fill="#174034"/>
<path d="M9.7488 17.2224C8.6912 17.9969 7.90918 19.2333 7.43251 20.2685C7.31335 20.5292 7.20908 20.775 7.1197 20.9984C7.03778 21.2219 6.97075 21.423 6.91861 21.5943C6.81434 21.9294 6.76221 22.1454 6.76221 22.1454C6.76221 22.1454 7.33569 22.1975 8.14751 22.0337C8.55714 21.9518 9.01146 21.8177 9.49557 21.6092C9.98713 21.4006 10.4712 21.1101 10.9628 20.7229C11.9236 19.9334 12.6833 18.8758 13.2195 18.0193C13.4876 17.5873 13.7036 17.2075 13.8451 16.9393C13.9866 16.6638 14.0686 16.4999 14.0686 16.4999C14.0686 16.4999 13.927 16.4552 13.6962 16.4031C13.4578 16.351 13.1152 16.2988 12.713 16.2988C12.3109 16.2988 11.8342 16.3361 11.3277 16.4701C10.8138 16.6116 10.285 16.85 9.7488 17.2298V17.2224Z" fill="#174034"/>
<path d="M7.55917 26.674C6.67287 27.7763 6.21111 29.318 6.0696 30.5543C6.03236 30.8671 6.00257 31.1576 5.99512 31.4183C5.99512 31.6789 5.99512 31.9173 5.99512 32.1035C6.00257 32.4907 6.01746 32.7291 6.01746 32.7291C6.01746 32.7291 6.17387 32.6918 6.41965 32.595C6.67287 32.5056 7.02292 32.3492 7.41766 32.1333C7.8124 31.9098 8.24437 31.6194 8.6689 31.247C9.10088 30.8746 9.5403 30.4277 9.90525 29.884C10.6649 28.8041 11.1267 27.5454 11.4544 26.525C11.5289 26.2718 11.6034 26.0335 11.6629 25.8175C11.7225 25.6015 11.7672 25.4078 11.8045 25.2514C11.8864 24.9312 11.9236 24.7375 11.9236 24.7375C11.9236 24.7375 11.298 24.6854 10.4266 24.8865C9.98717 24.9833 9.50306 25.1546 9.0115 25.4376C8.50505 25.7132 8.01349 26.1154 7.55917 26.6665V26.674Z" fill="#174034"/>
<path d="M8.28919 36.1988C7.76039 37.6363 7.84232 39.3791 8.15513 40.6974C8.19237 40.8612 8.22216 41.0251 8.26685 41.174C8.31153 41.323 8.35622 41.4645 8.39346 41.606C8.48283 41.8816 8.56476 42.1199 8.63179 42.3135C8.69882 42.5146 8.7733 42.671 8.81799 42.7753C8.86267 42.8796 8.89247 42.9392 8.89247 42.9392C8.89247 42.9392 9.03397 42.8498 9.25741 42.6636C9.48085 42.4774 9.77876 42.1944 10.099 41.8294C10.7544 41.0846 11.4545 40.0047 11.8418 38.6268C12.2366 37.2415 12.2515 35.8116 12.2366 34.6944C12.2217 34.4188 12.2366 34.1581 12.2142 33.9272C12.1993 33.6964 12.1844 33.4953 12.1695 33.324C12.1546 32.9888 12.1248 32.7803 12.1248 32.7803C12.1248 32.7803 11.961 32.8175 11.6854 32.9218C11.4173 33.0186 11.0375 33.175 10.6204 33.4208C10.1958 33.6666 9.76386 33.9943 9.34678 34.456C9.13824 34.6795 8.93715 34.9327 8.75096 35.2306C8.57221 35.5211 8.4158 35.8413 8.28919 36.2063V36.1988Z" fill="#174034"/>
<path d="M12.0205 44.9512C12.0205 45.1597 12.0056 45.3683 12.0279 45.5768C12.0428 45.7854 12.0726 45.9939 12.1024 46.2024C12.1694 46.6121 12.2663 47.0366 12.4003 47.4313C12.4674 47.6324 12.5418 47.8261 12.6089 48.0197C12.6461 48.1165 12.6834 48.2134 12.728 48.3102C12.7727 48.3996 12.81 48.4889 12.8547 48.5858C13.026 48.9433 13.2121 49.2933 13.3909 49.6136C13.7856 50.2243 14.1431 50.7531 14.4485 51.0957C14.7464 51.4383 14.9326 51.6394 14.9326 51.6394C14.9326 51.6394 15.0443 51.4904 15.2082 51.2223C15.372 50.9542 15.5806 50.5594 15.7742 50.0679C15.9753 49.5763 16.1541 49.0028 16.2881 48.3474C16.4222 47.692 16.4818 46.9845 16.4594 46.2173C16.3924 44.6831 15.9381 43.2233 15.5582 42.0987C15.454 41.8231 15.372 41.555 15.2827 41.3241C15.1933 41.0932 15.1039 40.8921 15.0369 40.7208C14.9028 40.3857 14.8134 40.1846 14.8134 40.1846C14.8134 40.1846 14.657 40.2814 14.4113 40.4676C14.1655 40.6538 13.8378 40.9442 13.4877 41.3315C13.3164 41.5252 13.1377 41.7412 12.9738 41.9944C12.81 42.2402 12.661 42.5158 12.5195 42.8137C12.378 43.1116 12.2588 43.4467 12.1694 43.8042C12.0875 44.1617 12.0354 44.5416 12.0205 44.9586V44.9512Z" fill="#174034"/>
<path d="M18.2468 52.056C18.5 52.8976 18.932 53.7094 19.4831 54.4244C19.7438 54.7894 20.0491 55.1096 20.3545 55.4225C20.5035 55.5789 20.6524 55.7204 20.8088 55.8619C20.9652 55.9959 21.1216 56.1226 21.2706 56.2492C21.8739 56.7556 22.4623 57.0982 22.8868 57.344C23.0953 57.4706 23.2741 57.5525 23.3932 57.6047C23.5124 57.6568 23.5794 57.6941 23.5794 57.6941C23.5794 57.6941 23.639 57.5079 23.6911 57.1727C23.7507 56.845 23.8029 56.3683 23.8178 55.8097C23.8327 55.2437 23.8103 54.5808 23.6986 53.8956C23.639 53.553 23.5794 53.1881 23.4826 52.8157C23.3932 52.4433 23.2666 52.0858 23.1251 51.706C22.5367 50.2238 21.643 48.9279 20.9056 47.9448C20.861 47.8852 20.8088 47.8256 20.7641 47.7661C20.7194 47.7065 20.6748 47.6543 20.6375 47.5873C20.5481 47.4756 20.4662 47.3713 20.3843 47.267C20.2204 47.066 20.0715 46.9021 19.9598 46.7531C19.7214 46.4627 19.565 46.2988 19.565 46.2988C19.565 46.2988 19.431 46.4478 19.2448 46.7234C19.0586 46.9989 18.8053 47.3937 18.5819 47.9001C18.4702 48.1533 18.3585 48.4364 18.2691 48.7417C18.1797 49.0396 18.1127 49.3673 18.068 49.7174C18.0308 50.0674 18.0084 50.4473 18.0382 50.8346C18.068 51.2219 18.1425 51.6315 18.2617 52.056H18.2468Z" fill="#174034"/>
<path d="M16.4299 2.21479C15.1414 3.33942 14.4116 4.73962 14.0317 5.80466C13.9423 6.08023 13.8604 6.31857 13.8008 6.542C13.7412 6.76544 13.704 6.95908 13.6742 7.12293C13.6146 7.44319 13.5923 7.62939 13.5923 7.62939C13.5923 7.62939 13.771 7.56236 14.0689 7.4283C14.2179 7.35382 14.3967 7.27189 14.5977 7.16762C14.7988 7.0708 15.0297 6.95163 15.2681 6.82502C16.2363 6.30367 17.4503 5.56633 18.5749 4.59066C19.6921 3.60754 20.5635 2.5276 21.2263 1.66365C21.3902 1.45511 21.5392 1.24657 21.6732 1.06782C21.8073 0.889071 21.9264 0.740115 22.0233 0.606053C22.2095 0.33793 22.3137 0.174076 22.3137 0.174076C22.3137 0.174076 22.1275 0.15918 21.7849 0.15918C21.6136 0.15918 21.4125 0.166629 21.1742 0.181525C20.9433 0.211317 20.6752 0.241108 20.3847 0.300691C20.0943 0.352826 19.7889 0.427303 19.4612 0.531573C19.2973 0.583708 19.1335 0.635844 18.9622 0.695427C18.7983 0.762458 18.627 0.836937 18.4557 0.911415C18.2844 0.985894 18.1057 1.07527 17.9344 1.16464C17.7631 1.26147 17.5918 1.36574 17.4205 1.47001C17.2492 1.58172 17.0779 1.69344 16.914 1.82006C16.7502 1.94667 16.5863 2.08073 16.4225 2.22224L16.4299 2.21479Z" fill="#174034"/>
<path d="M26.3579 56.5839C26.6409 56.9414 26.9611 57.2915 27.3186 57.6118C27.6836 57.9097 28.0709 58.1852 28.4805 58.4385C28.8901 58.6694 29.3147 58.8853 29.7392 59.0641C30.1637 59.2279 30.5883 59.3695 30.983 59.4886C31.7874 59.6897 32.5098 59.8238 33.0312 59.8536C33.5525 59.8983 33.8653 59.9057 33.8653 59.9057C33.8653 59.9057 33.8355 59.6972 33.7462 59.3397C33.6568 58.9896 33.5004 58.498 33.2769 57.9469C33.1578 57.6639 33.0237 57.3734 32.8748 57.0681C32.8003 56.9191 32.7183 56.7702 32.629 56.6137C32.5396 56.4573 32.4502 56.2935 32.3534 56.1371C32.1598 55.8168 31.9438 55.4966 31.7054 55.1838C31.4671 54.8709 31.2139 54.5432 30.9309 54.2453C29.7988 53.0313 28.5178 52.145 27.4974 51.4673C27.3708 51.3853 27.2442 51.3109 27.125 51.2364C27.0058 51.1545 26.8941 51.0874 26.7898 51.0204C26.5739 50.8789 26.3802 50.7821 26.2164 50.6778C25.8961 50.4767 25.695 50.3799 25.695 50.3799C25.695 50.3799 25.6131 50.5735 25.5163 50.9161C25.4194 51.2513 25.3077 51.7428 25.2481 52.3312C25.1886 52.9271 25.2035 53.5974 25.3599 54.3347C25.5088 55.0869 25.8365 55.8317 26.3877 56.5914L26.3579 56.5839Z" fill="#174034"/>
<path d="M35.9208 68.1282C36.9337 66.7801 37.3805 64.9778 37.5444 63.5254C37.6189 62.803 37.6487 62.1699 37.6263 61.7156C37.6114 61.2613 37.5891 60.9932 37.5891 60.9932C37.5891 60.9932 36.8443 61.1645 35.891 61.6933C34.9451 62.2221 33.7758 63.086 32.8969 64.4266C32.0181 65.7672 31.5116 67.3238 31.2063 68.5453C31.1243 68.8432 31.0648 69.1337 31.0126 69.3869C30.9605 69.6401 30.9083 69.8636 30.8711 70.0572C30.8041 70.4296 30.7817 70.6605 30.7817 70.6605C30.7817 70.6605 31.5414 70.6828 32.5767 70.3924C33.0906 70.2434 33.679 70.02 34.2599 69.6625C34.8259 69.2975 35.4218 68.806 35.9208 68.1282Z" fill="#174034"/>
<path d="M39.2647 68.1282C38.2518 66.7801 37.8049 64.9778 37.6336 63.5254C37.5591 62.803 37.5293 62.1699 37.5517 61.7156C37.5666 61.2613 37.5889 60.9932 37.5889 60.9932C37.5889 60.9932 38.3337 61.1645 39.287 61.6933C40.2329 62.2221 41.4022 63.086 42.2885 64.4266C43.1599 65.7672 43.6738 67.3238 43.9792 68.5453C44.0611 68.8432 44.1207 69.1337 44.1728 69.3869C44.225 69.6401 44.2771 69.8636 44.3144 70.0572C44.3814 70.4296 44.4037 70.6605 44.4037 70.6605C44.4037 70.6605 43.644 70.6828 42.6088 70.3924C42.0949 70.2434 41.5065 70.02 40.9256 69.6625C40.3595 69.2975 39.7563 68.806 39.2647 68.1282Z" fill="#174034"/>
<path d="M60.8557 9.00677C61.958 9.40151 62.9187 10.2803 63.5816 11.0624C63.9093 11.4571 64.17 11.8146 64.3338 12.0827C64.5051 12.3509 64.5945 12.5147 64.5945 12.5147C64.5945 12.5147 64.1104 12.7009 63.3656 12.753C62.6283 12.8126 61.6303 12.753 60.6099 12.3062C59.5895 11.8519 58.6883 11.1443 58.0329 10.5559C57.8691 10.407 57.7201 10.2655 57.5935 10.1388C57.4595 10.0122 57.3403 9.90051 57.2509 9.80369C57.0647 9.61005 56.9604 9.49087 56.9604 9.49087C56.9604 9.49087 57.3775 9.19296 58.0776 8.96953C58.4277 8.85781 58.8448 8.76099 59.3214 8.75354C59.7832 8.74609 60.312 8.80568 60.8557 9.00677Z" fill="#174034"/>
<path d="M65.4587 17.4232C66.5088 18.1754 67.2834 19.3895 67.7601 20.4173C67.8792 20.6705 67.9761 20.9163 68.0654 21.1397C68.1474 21.3631 68.2144 21.5642 68.2665 21.7281C68.3708 22.0632 68.4229 22.2643 68.4229 22.2643C68.4229 22.2643 67.8494 22.3165 67.0376 22.1601C66.6354 22.0856 66.1737 21.9515 65.697 21.7504C65.2055 21.5493 64.7213 21.2663 64.2298 20.879C63.269 20.1044 62.5242 19.0617 61.988 18.2276C61.7273 17.8031 61.5113 17.4307 61.3698 17.1625C61.2357 16.887 61.1538 16.7231 61.1538 16.7231C61.1538 16.7231 61.2879 16.6784 61.5262 16.6263C61.7645 16.5742 62.0997 16.522 62.5093 16.5146C62.9115 16.5071 63.3882 16.5444 63.8946 16.6784C64.4011 16.805 64.9299 17.0434 65.4661 17.4158L65.4587 17.4232Z" fill="#174034"/>
<path d="M67.7227 26.7181C68.609 27.8129 69.0633 29.3248 69.2048 30.5463C69.2421 30.8517 69.2719 31.1421 69.2868 31.3954C69.2868 31.656 69.2868 31.8869 69.2868 32.0806C69.2868 32.4678 69.2644 32.6913 69.2644 32.6913C69.2644 32.6913 69.1155 32.654 68.8622 32.5572C68.609 32.4678 68.259 32.3189 67.8642 32.0955C67.4695 31.8795 67.0375 31.589 66.613 31.224C66.181 30.8591 65.7416 30.4122 65.3766 29.876C64.617 28.8184 64.1552 27.582 63.8349 26.5766C63.7605 26.3308 63.686 26.0925 63.6264 25.8839C63.5668 25.6679 63.5221 25.4817 63.4849 25.3253C63.403 25.0125 63.3657 24.8189 63.3657 24.8189C63.3657 24.8189 63.9913 24.7668 64.8553 24.9604C65.2947 25.0572 65.7788 25.2211 66.2704 25.5041C66.7768 25.7797 67.2684 26.1669 67.7153 26.7106L67.7227 26.7181Z" fill="#174034"/>
<path d="M67.1045 36.1245C67.6333 37.5545 67.5588 39.2824 67.2534 40.5783C67.2162 40.7422 67.1864 40.906 67.1417 41.055C67.097 41.2039 67.0523 41.3529 67.0151 41.4795C66.9332 41.7551 66.8512 41.986 66.7768 42.1871C66.7097 42.3807 66.6352 42.5371 66.5906 42.6339C66.5459 42.7382 66.5161 42.7978 66.5161 42.7978C66.5161 42.7978 66.3746 42.7084 66.1511 42.5222C65.9277 42.336 65.6298 42.0604 65.3095 41.6955C64.6541 40.9582 63.954 39.8857 63.5593 38.5153C63.1571 37.1449 63.1422 35.7298 63.1496 34.6275C63.1645 34.3519 63.1497 34.0912 63.172 33.8678C63.1794 33.6369 63.2018 33.4358 63.2167 33.272C63.2316 32.9368 63.2614 32.7432 63.2614 32.7432C63.2614 32.7432 63.4327 32.7804 63.7008 32.8772C63.9689 32.974 64.3488 33.1305 64.7658 33.3688C65.1904 33.6146 65.6223 33.9423 66.0469 34.3966C66.2554 34.62 66.4565 34.8733 66.6427 35.1637C66.814 35.4467 66.9778 35.767 67.1119 36.1245H67.1045Z" fill="#174034"/>
<path d="M63.5074 44.8379C63.5074 45.039 63.5223 45.255 63.5074 45.4561C63.4925 45.6646 63.4627 45.8732 63.433 46.0743C63.3734 46.4913 63.2766 46.901 63.135 47.2957C63.068 47.4968 63.001 47.6905 62.9265 47.8841C62.8893 47.9809 62.852 48.0777 62.8148 48.1671C62.7701 48.2565 62.7254 48.3533 62.6882 48.4427C62.5169 48.8002 62.3307 49.1428 62.1519 49.4556C61.7646 50.0663 61.3997 50.5877 61.1018 50.9303C60.8113 51.2729 60.6251 51.4665 60.6251 51.4665C60.6251 51.4665 60.5134 51.325 60.3495 51.0494C60.1857 50.7813 59.9771 50.3866 59.7761 49.9025C59.575 49.4109 59.3962 48.8449 59.2547 48.1895C59.1206 47.5415 59.0611 46.8339 59.076 46.0594C59.1355 44.5326 59.5824 43.0951 59.9623 41.963C60.0665 41.6875 60.1485 41.4268 60.2378 41.1959C60.3272 40.965 60.4166 40.7714 60.4762 40.6001C60.6102 40.2649 60.6996 40.0713 60.6996 40.0713C60.6996 40.0713 60.856 40.1681 61.1018 40.3543C61.3476 40.5405 61.6827 40.831 62.0253 41.2183C62.1966 41.4119 62.3754 41.6353 62.5467 41.8811C62.7105 42.1343 62.8669 42.4025 63.001 42.7004C63.1425 42.9983 63.2617 43.326 63.351 43.691C63.4404 44.041 63.4851 44.4283 63.5074 44.8379Z" fill="#174034"/>
<path d="M57.4 51.973C57.1542 52.8146 56.7148 53.6264 56.1711 54.3265C55.9104 54.6989 55.6051 55.0192 55.3071 55.3246C55.1582 55.4735 55.0092 55.6299 54.8528 55.764C54.6964 55.898 54.54 56.0247 54.391 56.1513C53.7878 56.6503 53.1994 56.9929 52.7823 57.2387C52.5738 57.3653 52.395 57.4398 52.2759 57.4993C52.1567 57.5589 52.0897 57.5887 52.0897 57.5887C52.0897 57.5887 52.0301 57.4025 51.9779 57.0674C51.9184 56.7322 51.8662 56.263 51.8513 55.7044C51.8364 55.1309 51.8588 54.4755 51.9631 53.7903C52.0152 53.4551 52.0822 53.0827 52.179 52.7178C52.2684 52.3454 52.395 51.9954 52.5365 51.6155C53.1175 50.1334 54.0112 48.8449 54.7411 47.8618C54.7932 47.8022 54.8379 47.7426 54.8826 47.6831C54.9273 47.6235 54.972 47.5713 55.0092 47.5043C55.0912 47.3926 55.1805 47.2883 55.255 47.184C55.4114 46.9829 55.5678 46.8191 55.6795 46.6701C55.9179 46.3797 56.0743 46.2158 56.0743 46.2158C56.0743 46.2158 56.2083 46.3648 56.3945 46.6329C56.5807 46.9085 56.8339 47.3032 57.0574 47.8097C57.1691 48.0629 57.2808 48.3459 57.3702 48.6513C57.4596 48.9492 57.5341 49.2769 57.5713 49.6269C57.616 49.977 57.6309 50.3568 57.6085 50.7441C57.5787 51.1314 57.5117 51.5336 57.3925 51.9581L57.4 51.973Z" fill="#174034"/>
<path d="M49.3564 56.583C49.0734 56.9405 48.7532 57.2905 48.3957 57.6108C48.0307 57.9087 47.6434 58.1843 47.2338 58.4375C46.8242 58.6684 46.3996 58.8844 45.9751 59.0631C45.5506 59.227 45.1261 59.3685 44.7313 59.4876C43.927 59.6887 43.2045 59.8228 42.6832 59.8526C42.1618 59.8973 41.8564 59.9047 41.8564 59.9047C41.8564 59.9047 41.8862 59.6962 41.9756 59.3387C42.065 58.9886 42.2214 58.4971 42.4523 57.9459C42.5714 57.6629 42.7055 57.3725 42.8545 57.0671C42.9289 56.9181 43.0109 56.7692 43.1002 56.6128C43.1896 56.4564 43.279 56.2925 43.3758 56.1361C43.5695 55.8158 43.7854 55.4956 44.0238 55.1828C44.2621 54.87 44.5153 54.5423 44.7984 54.2443C45.9304 53.0303 47.2115 52.144 48.2318 51.4663C48.3584 51.3844 48.485 51.3099 48.6042 51.2354C48.7234 51.1535 48.8351 51.0865 48.9394 51.0194C49.1554 50.8779 49.3564 50.7811 49.5129 50.6768C49.8331 50.4757 50.0342 50.3789 50.0342 50.3789C50.0342 50.3789 50.1161 50.5726 50.2129 50.9152C50.3098 51.2503 50.4289 51.7419 50.4811 52.3302C50.5407 52.9261 50.5258 53.5964 50.3694 54.3337C50.2129 55.086 49.8927 55.8307 49.3416 56.5904L49.3564 56.583Z" fill="#174034"/>
<path d="M62.837 7.50928C62.9785 8.73073 63.4254 9.95963 63.835 10.9055C64.0287 11.3822 64.2298 11.7769 64.3638 12.0674C64.5053 12.3578 64.5947 12.5142 64.5947 12.5142C64.5947 12.5142 65.0192 12.2089 65.4438 11.5907C65.8683 10.9651 66.2928 10.0267 66.2258 8.74562C66.1662 7.45714 65.5853 6.10908 64.9969 5.11107C64.8479 4.85784 64.699 4.63441 64.5649 4.42587C64.4234 4.22477 64.2893 4.05347 64.1851 3.90452C63.9616 3.61405 63.8201 3.4502 63.8201 3.4502C63.8201 3.4502 63.485 3.85983 63.2094 4.57482C63.0679 4.93232 62.9487 5.35685 62.8742 5.85585C62.7923 6.35486 62.7774 6.906 62.8445 7.51673L62.837 7.50928Z" fill="#174034"/>
<path d="M68.0061 16.4171C67.7901 17.7577 67.9167 19.2026 68.0731 20.3347C68.1104 20.6177 68.1476 20.8784 68.1923 21.1093C68.2295 21.3476 68.2668 21.5561 68.2966 21.7274C68.3636 22.07 68.4157 22.2711 68.4157 22.2711C68.4157 22.2711 68.952 22.07 69.585 21.5338C69.8979 21.2582 70.2405 20.9082 70.5458 20.439C70.8363 19.9846 71.1119 19.4037 71.2534 18.711C71.5662 17.3183 71.3427 15.717 71.015 14.4956C70.8586 13.8848 70.665 13.356 70.516 12.9911C70.3745 12.6261 70.2702 12.4102 70.2702 12.4102C70.2702 12.4102 70.1511 12.4921 69.9649 12.6559C69.7861 12.8198 69.5404 13.073 69.2797 13.4082C69.019 13.7433 68.7509 14.1604 68.5274 14.6594C68.2966 15.1584 68.1029 15.7468 67.9986 16.4171H68.0061Z" fill="#174034"/>
<path d="M70.7097 26.3981C70.0915 27.7685 69.7936 29.3251 69.5627 30.554C69.5105 30.8668 69.4733 31.1498 69.4286 31.4105C69.3839 31.6638 69.3541 31.8946 69.3244 32.0883C69.2722 32.4681 69.2573 32.699 69.2573 32.699C69.2573 32.699 69.4137 32.6916 69.6744 32.6469C69.9351 32.6022 70.3075 32.5128 70.7246 32.3415C71.1491 32.1702 71.6183 31.917 72.1024 31.5222C72.5716 31.135 73.0185 30.6062 73.4207 29.8986C74.1878 28.4835 74.441 26.6588 74.4336 25.2214C74.4336 24.8639 74.4187 24.5287 74.3963 24.2308C74.374 23.9329 74.3517 23.6647 74.3219 23.4413C74.2623 23.0019 74.2101 22.7412 74.2101 22.7412C74.2101 22.7412 73.6143 22.9646 72.8993 23.5381C72.5418 23.8212 72.1322 24.201 71.7524 24.6777C71.38 25.1469 71.0001 25.7204 70.7022 26.4056L70.7097 26.3981Z" fill="#174034"/>
<path d="M70.285 36.8466C69.1603 38.0457 68.3038 39.5427 67.6186 40.7195C67.5367 40.8685 67.4622 41.0174 67.3877 41.1515C67.3133 41.2855 67.2388 41.4196 67.1718 41.5462C67.0377 41.7995 66.9185 42.0229 66.8292 42.2091C66.643 42.5815 66.5312 42.8049 66.5312 42.8049C66.5312 42.8049 66.6951 42.857 66.9856 42.9092C67.276 42.9539 67.6857 43.006 68.1847 42.9837C69.1603 42.9315 70.5233 42.6187 71.8192 41.4494C73.1152 40.2875 74.061 38.4777 74.56 36.9583C74.6941 36.5785 74.7835 36.2136 74.8729 35.8858C74.9548 35.5581 75.0293 35.2677 75.0739 35.0219C75.1633 34.5303 75.1931 34.2324 75.1931 34.2324C75.1931 34.2324 75.0218 34.2324 74.7313 34.292C74.4409 34.3516 74.0387 34.4484 73.5695 34.6272C73.1077 34.8134 72.5491 35.0666 71.998 35.4315C71.7224 35.6103 71.4394 35.8188 71.1564 36.0572C70.8659 36.2955 70.5754 36.5562 70.2999 36.8615L70.285 36.8466Z" fill="#174034"/>
<path d="M66.5313 46.6554C66.3302 46.7597 66.1514 46.8789 65.9578 46.998C65.7641 47.1098 65.578 47.2364 65.3918 47.363C65.0268 47.6162 64.6768 47.8843 64.3267 48.145C64.1554 48.2791 63.9916 48.4131 63.8277 48.5472C63.7458 48.6217 63.6639 48.6887 63.5894 48.7557C63.5075 48.8228 63.4255 48.8898 63.351 48.9568C63.0382 49.2175 62.7403 49.4856 62.4722 49.7314C61.9062 50.2081 61.4742 50.6624 61.1316 50.9677C60.8039 51.2806 60.6177 51.4742 60.6177 51.4742C60.6177 51.4742 60.7666 51.5859 61.0422 51.7349C61.3178 51.8838 61.72 52.07 62.2413 52.2264C62.7552 52.3754 63.3957 52.4946 64.1033 52.4648C64.8183 52.4424 65.645 52.2935 66.5089 51.9062C68.2517 51.1465 69.8456 49.5899 70.8734 48.1897C71.1415 47.8396 71.3575 47.497 71.5586 47.1917C71.7522 46.8789 71.931 46.6033 72.0576 46.365C72.3108 45.8883 72.4523 45.5904 72.4523 45.5904C72.4523 45.5904 72.2736 45.5383 71.9608 45.501C71.648 45.4563 71.1936 45.4265 70.6499 45.4563C70.3744 45.4712 70.0839 45.5085 69.7711 45.5532C69.4508 45.5978 69.1157 45.6649 68.7656 45.7617C68.4156 45.8511 68.0581 45.9777 67.6931 46.1266C67.3208 46.2681 66.926 46.4543 66.5462 46.6629L66.5313 46.6554Z" fill="#174034"/>
<path d="M59.8583 54.855C58.9124 55.0263 57.9815 55.3168 57.0877 55.6147C56.6483 55.7785 56.2089 55.9275 55.7992 56.0839C55.5907 56.1658 55.3896 56.2478 55.196 56.3222C54.9949 56.3967 54.8087 56.4712 54.6225 56.5382C53.8926 56.851 53.2521 57.0894 52.8127 57.2905C52.5892 57.3947 52.4105 57.4543 52.2839 57.5065C52.1647 57.5586 52.0977 57.5884 52.0977 57.5884C52.0977 57.5884 52.2019 57.7597 52.4179 58.0129C52.6339 58.2736 52.9691 58.6162 53.4308 58.9737C53.8926 59.3163 54.481 59.6589 55.2258 59.9121C55.6056 60.0387 56.0078 60.1281 56.4547 60.1877C56.9015 60.2398 57.3931 60.2622 57.907 60.2175C58.4209 60.1653 58.9571 60.076 59.4859 59.9419C60.0073 59.7929 60.5286 59.6142 61.0425 59.4057C61.5416 59.1822 62.0257 58.9364 62.4949 58.6832C62.9566 58.4225 63.3737 58.1395 63.7759 57.8639C63.8727 57.7969 63.977 57.7299 64.0664 57.6629C64.1558 57.5884 64.2451 57.5214 64.3345 57.4543C64.5133 57.3203 64.6696 57.1862 64.8261 57.0596C65.1389 56.7989 65.4144 56.568 65.623 56.3595C66.055 55.9499 66.3007 55.6892 66.3007 55.6892C66.3007 55.6892 66.1369 55.5775 65.8241 55.4359C65.5113 55.287 65.0569 55.1082 64.4835 54.9667C64.2004 54.8923 63.8876 54.8327 63.545 54.7805C63.2024 54.7284 62.8375 54.6837 62.4427 54.6688C62.0554 54.6465 61.6458 54.6539 61.2138 54.6912C60.7744 54.7135 60.3201 54.7731 59.8509 54.8625L59.8583 54.855Z" fill="#174034"/>
<path d="M56.7746 5.1264C57.8843 6.05739 59.0834 6.73514 60.0442 7.2267C60.2825 7.34587 60.506 7.45014 60.7071 7.53951C60.9081 7.63633 61.0795 7.71826 61.2284 7.77784C61.5189 7.90446 61.7051 7.96404 61.7051 7.96404C61.7051 7.96404 61.6827 7.77784 61.6157 7.46503C61.5859 7.30118 61.5412 7.10753 61.4816 6.89155C61.4146 6.66811 61.3327 6.42978 61.2359 6.16166C60.8411 5.11151 60.0889 3.7411 58.8079 2.66861C58.6515 2.542 58.4876 2.40793 58.3237 2.29622C58.1599 2.17705 57.9886 2.07278 57.8173 1.96851C57.646 1.87169 57.4821 1.77487 57.3108 1.68549C57.1395 1.60357 56.9682 1.52908 56.7969 1.46205C56.6256 1.38758 56.4692 1.32055 56.3054 1.26841C56.1415 1.21628 55.9777 1.17159 55.8138 1.1269C55.6574 1.08222 55.5084 1.03753 55.3595 1.00774C55.2105 0.977945 55.0616 0.9556 54.9275 0.933256C54.6519 0.896017 54.3987 0.866227 54.1753 0.858779C53.9444 0.851331 53.7507 0.858779 53.5869 0.858779C53.2666 0.873675 53.0879 0.896018 53.0879 0.896018C53.0879 0.896018 53.1922 1.05987 53.3784 1.3131C53.4752 1.43971 53.5869 1.58867 53.721 1.76742C53.8476 1.93872 53.9965 2.13981 54.1604 2.3409C54.8232 3.17506 55.6797 4.21776 56.782 5.14875L56.7746 5.1264Z" fill="#174034"/>
<path d="M50.7046 60.3966C50.1907 60.2998 49.6694 60.2328 49.1555 60.1881C48.6341 60.1285 48.1202 60.0838 47.6138 60.0689C47.1073 60.0242 46.6157 60.0093 46.1391 60.0093C45.6624 59.9795 45.2081 59.9646 44.7836 59.9646C43.9345 59.9274 43.2046 59.9348 42.6833 59.9051C42.1619 59.8902 41.8491 59.9051 41.8491 59.9051C41.8491 59.9051 41.8789 60.121 41.9757 60.4636C42.0726 60.8062 42.2439 61.2904 42.5418 61.8266C42.6907 62.0947 42.8769 62.3852 43.1078 62.6757C43.2195 62.8246 43.3461 62.9661 43.4802 63.1151C43.6143 63.2566 43.7632 63.3981 43.9196 63.5322C44.2399 63.8077 44.6048 64.0759 45.0294 64.3291C45.4539 64.5823 45.938 64.776 46.4817 64.9547C47.0328 65.1409 47.6063 65.2452 48.2096 65.3271C48.8129 65.4165 49.4236 65.4165 50.0343 65.4016C50.6525 65.4016 51.2483 65.3196 51.8293 65.2303C52.4176 65.1558 52.9688 65.0143 53.4901 64.8802C53.7508 64.8207 54.004 64.7462 54.2424 64.6717C54.4732 64.5972 54.6967 64.5153 54.9127 64.4408C55.3372 64.2844 55.717 64.1503 56.015 64.0163C56.6182 63.7407 56.9683 63.5545 56.9683 63.5545C56.9683 63.5545 56.8417 63.3832 56.5735 63.13C56.3054 62.8768 55.9032 62.5342 55.3744 62.1916C54.8456 61.849 54.1753 61.4766 53.3933 61.1637C52.6187 60.8658 51.7026 60.5679 50.6897 60.4041L50.7046 60.3966Z" fill="#174034"/>
</svg>
