<svg width="55" height="36" viewBox="0 0 55 36" fill="none" xmlns="http://www.w3.org/2000/svg">
<path d="M8.34668 23.9526H2.28736C1.67777 23.9526 1.18359 24.4468 1.18359 25.0564V34.2051C1.18359 34.8147 1.67777 35.3089 2.28736 35.3089H8.34668C8.95627 35.3089 9.45045 34.8147 9.45045 34.2051V25.0564C9.45045 24.4468 8.95627 23.9526 8.34668 23.9526Z" fill="#174034"/>
<path d="M16.7898 16.0781H22.8548C23.4636 16.0781 23.9586 16.5731 23.9586 17.1819V34.2049C23.9586 34.8137 23.4636 35.3087 22.8548 35.3087H16.7898C16.181 35.3087 15.686 34.8137 15.686 34.2049V17.1819C15.686 16.5731 16.181 16.0781 16.7898 16.0781Z" fill="#174034"/>
<path d="M37.3457 23.9526H31.2864C30.6768 23.9526 30.1826 24.4468 30.1826 25.0564V34.2051C30.1826 34.8147 30.6768 35.3089 31.2864 35.3089H37.3457C37.9553 35.3089 38.4495 34.8147 38.4495 34.2051V25.0564C38.4495 24.4468 37.9553 23.9526 37.3457 23.9526Z" fill="#174034"/>
<path d="M45.7893 16.0781H51.8543C52.4631 16.0781 52.9581 16.5731 52.9581 17.1819V34.2049C52.9581 34.8137 52.4631 35.3087 51.8543 35.3087H45.7893C45.1805 35.3087 44.6855 34.8137 44.6855 34.2049V17.1819C44.6855 16.5731 45.1805 16.0781 45.7893 16.0781Z" fill="#174034"/>
<path d="M48.8103 0C45.8688 0 43.4849 2.3839 43.4849 5.32538C43.4849 5.82036 43.5589 6.29259 43.684 6.74775L37.7442 10.5654C36.8168 9.78595 35.622 9.31372 34.3191 9.31372C33.0162 9.31372 31.8157 9.78595 30.894 10.5654L24.9485 6.74775C25.0736 6.29828 25.1476 5.82036 25.1476 5.33106C25.1476 2.38959 22.7637 0.00569072 19.8222 0.00569072C16.8808 0.00569072 14.4969 2.38959 14.4969 5.33106C14.4969 5.82605 14.5708 6.29828 14.696 6.74775L8.75046 10.5654C7.82307 9.78595 6.62827 9.31372 5.32538 9.31372C2.3839 9.31372 0 11.6976 0 14.6391C0 17.5806 2.3839 19.9645 5.32538 19.9645C8.26685 19.9645 10.6508 17.5806 10.6508 14.6391C10.6508 14.1441 10.5768 13.6662 10.4516 13.211L16.3915 9.39337C17.3189 10.1785 18.5136 10.6508 19.8222 10.6508C21.1308 10.6508 22.3256 10.1785 23.253 9.39337L29.1929 13.211C29.0677 13.6662 28.9937 14.1441 28.9937 14.6391C28.9937 17.5806 31.3776 19.9645 34.3191 19.9645C37.2606 19.9645 39.6445 17.5806 39.6445 14.6391C39.6445 14.1441 39.5705 13.6662 39.4453 13.211L45.3795 9.39906C46.3069 10.1785 47.5017 10.6508 48.8103 10.6508C51.7517 10.6508 54.1356 8.26685 54.1356 5.32538C54.1356 2.3839 51.7517 0 48.8103 0Z" fill="#174034"/>
</svg>
