<svg width="56" height="56" viewBox="0 0 56 56" fill="none" xmlns="http://www.w3.org/2000/svg">
<path d="M21.1535 20.96C17.5014 20.96 14.5337 23.9277 14.5337 27.5798C14.5337 31.2318 17.5014 34.1996 21.1535 34.1996C24.8055 34.1996 27.7733 31.2318 27.7733 27.5798C27.7733 23.9277 24.8055 20.96 21.1535 20.96ZM21.1535 29.7888C19.9337 29.7888 18.9444 28.7996 18.9444 27.5798C18.9444 26.3599 19.9337 25.3707 21.1535 25.3707C22.3733 25.3707 23.3626 26.3599 23.3626 27.5798C23.3626 28.7996 22.3733 29.7888 21.1535 29.7888Z" fill="#174034"/>
<path d="M35.4938 24.2708C39.1459 24.2708 42.1136 21.3031 42.1136 17.651C42.1136 13.999 39.1459 11.0312 35.4938 11.0312C31.8418 11.0312 28.874 13.999 28.874 17.651C28.874 21.3031 31.8418 24.2708 35.4938 24.2708ZM35.4938 15.4494C36.7136 15.4494 37.7029 16.4387 37.7029 17.6585C37.7029 18.8783 36.7136 19.8676 35.4938 19.8676C34.274 19.8676 33.2847 18.8783 33.2847 17.6585C33.2847 16.4387 34.274 15.4494 35.4938 15.4494Z" fill="#174034"/>
<path d="M20.0529 13.2396C23.7049 13.2396 26.6727 10.2718 26.6727 6.6198C26.6727 2.96775 23.7049 0 20.0529 0C16.4009 0 13.4331 2.96775 13.4331 6.6198C13.4331 10.2718 16.4009 13.2396 20.0529 13.2396ZM20.0529 4.41072C21.2727 4.41072 22.262 5.39997 22.262 6.6198C22.262 7.83963 21.2727 8.82888 20.0529 8.82888C18.8331 8.82888 17.8438 7.83963 17.8438 6.6198C17.8438 5.39997 18.8331 4.41072 20.0529 4.41072Z" fill="#174034"/>
<path d="M53.1443 41.9212V11.0312H45.6022V15.4494H48.7336V41.9212H40.0981L37.889 44.1302H18.7585L16.5495 41.9212H6.81316V15.4494H11.2462V11.0312H2.40244V41.9212H0.193359V49.2773L4.60408 55.1608H12.3321V50.75H6.81316L4.60408 47.8046V46.3319H14.7272L16.9288 48.541H39.7188L41.9278 46.3319H50.9427V47.8046L48.7336 50.75H16.7429V55.1608H50.9427L55.3534 49.2773V41.9212H53.1443Z" fill="#174034"/>
</svg>
