<svg width="62" height="62" viewBox="0 0 62 62" fill="none" xmlns="http://www.w3.org/2000/svg">
<path d="M11.0844 61.0076V54.47L2.21189 43.8199C0.908884 42.2533 0.193359 40.28 0.193359 38.2388V18.513C0.193359 16.7053 1.65454 15.2441 3.46218 15.2441C5.26982 15.2441 6.731 16.7053 6.731 18.513V26.2557C5.25476 27.7621 4.54676 29.6751 4.55429 31.5882C4.55429 33.3733 5.20956 35.0604 6.13598 36.2052L10.9865 42.6977C11.7095 43.6618 13.0728 43.8576 14.0369 43.1345C15.001 42.4115 15.1968 41.0482 14.4737 40.0841L9.5705 33.5314C8.63655 32.364 8.64408 30.4811 9.85671 29.2684C11.0015 28.1236 13.2611 28.0709 14.4361 29.2458L24.4609 39.4741C25.666 40.7018 26.3288 42.3286 26.3288 44.0534V60.9925H11.0769L11.0844 61.0076Z" fill="#174034"/>
<path d="M35.0583 61.0082V44.069C35.0583 42.3443 35.7211 40.7249 36.9262 39.4897L46.9511 29.2615C48.1261 28.0865 50.3781 28.1317 51.5304 29.284C52.7431 30.4967 52.7581 32.3796 51.8167 33.5471L46.9134 40.0998C46.1904 41.0638 46.3937 42.4271 47.3503 43.1502C48.3144 43.8732 49.6776 43.6699 50.4007 42.7133L55.2512 36.2209C56.1776 35.076 56.8253 33.3889 56.8329 31.6039C56.8329 29.6908 56.1324 27.7701 54.6562 26.2713V18.5286C54.6562 16.7209 56.1249 15.2598 57.925 15.2598C59.7251 15.2598 61.1938 16.7209 61.1938 18.5286V38.2545C61.1938 40.2956 60.4783 42.2689 59.1753 43.8356L50.3028 54.4856V61.0232H35.0508L35.0583 61.0082Z" fill="#174034"/>
<path d="M43.7725 0H17.6295C15.2193 0 13.2686 1.95075 13.2686 4.36094V21.7896C13.2686 24.1998 15.2193 26.1505 17.6295 26.1505H24.1671L30.7048 32.6882L37.2424 26.1505H43.78C46.1902 26.1505 48.141 24.1998 48.141 21.7896V4.36094C48.141 1.95075 46.1902 0 43.78 0H43.7725ZM20.8908 16.3441C19.0831 16.3441 17.622 14.8829 17.622 13.0753C17.622 11.2676 19.0831 9.80645 20.8908 9.80645C22.6984 9.80645 24.1596 11.2676 24.1596 13.0753C24.1596 14.8829 22.6984 16.3441 20.8908 16.3441ZM30.6972 16.3441C28.8896 16.3441 27.4284 14.8829 27.4284 13.0753C27.4284 11.2676 28.8896 9.80645 30.6972 9.80645C32.5049 9.80645 33.966 11.2676 33.966 13.0753C33.966 14.8829 32.5049 16.3441 30.6972 16.3441ZM40.5037 16.3441C38.696 16.3441 37.2349 14.8829 37.2349 13.0753C37.2349 11.2676 38.696 9.80645 40.5037 9.80645C42.3113 9.80645 43.7725 11.2676 43.7725 13.0753C43.7725 14.8829 42.3113 16.3441 40.5037 16.3441Z" fill="#174034"/>
</svg>
