<svg width="56" height="55" viewBox="0 0 56 55" fill="none" xmlns="http://www.w3.org/2000/svg">
<path d="M48.7522 34.0074C49.9875 31.0735 50.6198 27.9706 50.6198 24.7647C50.6198 22.2794 50.2154 19.8382 49.4654 17.4853C51.7816 16.25 53.3698 13.8088 53.3698 11.0074C53.3698 6.96324 50.0757 3.66912 46.0316 3.66912C44.1198 3.66912 42.3478 4.41176 41.0169 5.66912C37.1198 2.75 32.5463 1.13235 27.6787 0.955882C27.3772 0.933823 27.0757 0.919118 26.7742 0.919118C23.811 0.919118 20.9287 1.46324 18.1934 2.52206C16.2889 0.94853 13.8478 0 11.1934 0C5.12718 0 0.193359 4.93382 0.193359 11C0.193359 14.1544 1.52424 16.9926 3.6566 18.9926C3.18601 20.875 2.93601 22.8088 2.93601 24.75C2.93601 29.5956 4.38454 34.2059 7.09042 38.1691C4.59042 39.8088 2.93601 42.6324 2.93601 45.8382C2.93601 48.7279 4.28159 51.3088 6.37718 53C7.95071 54.2574 9.94336 55.0074 12.1051 55.0074C14.2669 55.0074 16.2595 54.2574 17.8331 53C19.4139 51.7206 20.5684 49.9265 21.0389 47.875C22.9139 48.3382 24.8404 48.5882 26.7742 48.5882C29.1566 48.5882 31.5022 48.2132 33.7742 47.5147C34.3551 49.2426 35.3551 50.7794 36.6566 52C38.6198 53.8676 41.2742 55.0074 44.1934 55.0074C47.1125 55.0074 49.7669 53.8676 51.7301 52C53.8698 50 55.1934 47.1618 55.1934 44.0074C55.1934 39.5588 52.5389 35.7353 48.7375 34L48.7522 34.0074ZM26.8698 46.75C26.811 46.75 26.7522 46.75 26.6934 46.75C25.2154 46.6103 23.3992 43.0882 22.2963 37C23.7669 36.7941 25.2742 36.6838 26.7889 36.6838C28.3037 36.6838 29.811 36.8015 31.2816 37.0147C30.1713 43.1103 28.3478 46.625 26.8772 46.7574L26.8698 46.75ZM26.7816 34.8529C25.1639 34.8529 23.561 34.9706 21.9948 35.1912C21.5904 32.4412 21.3331 29.25 21.2963 25.6838H32.2742C32.2375 29.2574 31.9801 32.4485 31.5757 35.2059C30.0095 34.9779 28.4066 34.8529 26.7889 34.8529H26.7816ZM14.6345 37.0441C13.1051 33.6544 12.2448 29.7574 12.1345 25.6765H19.4507C19.4875 29.0221 19.7448 32.3971 20.2007 35.4926C18.3331 35.8676 16.5242 36.4044 14.8184 37.0882C14.7595 37.0662 14.6934 37.0588 14.6345 37.0441ZM3.86248 16.5147C3.86248 14.0368 5.49483 11.9485 7.73012 11.2647C7.03159 10.4559 6.61248 9.41176 6.61248 8.2647C6.61248 5.73529 8.66395 3.68382 11.1934 3.68382C13.7228 3.68382 15.7742 5.73529 15.7742 8.2647C15.7742 9.41176 15.3551 10.4559 14.6566 11.2647C16.8919 11.9559 18.5242 14.0441 18.5242 16.5074C18.0022 17.2059 17.3772 17.8309 16.6934 18.3382V16.5147C16.6934 14.4853 15.0537 12.8456 13.0242 12.8456H9.35513C7.32571 12.8456 5.686 14.4853 5.686 16.5147V18.3382C4.99483 17.8235 4.37718 17.1985 3.85512 16.5147H3.86248ZM32.0537 23.6765C32.1272 23.7353 32.2007 23.7868 32.2742 23.8382V23.8529H21.2963C21.3331 20.2794 21.5904 17.0882 21.9948 14.3309C23.6125 14.5662 25.2154 14.6838 26.7816 14.6838C27.4287 14.6838 28.0978 14.6618 28.8184 14.6103C28.686 15.2279 28.6125 15.8603 28.6125 16.5147C28.6125 19.4044 29.9581 21.9853 32.0537 23.6765ZM35.8845 7.54411C34.6125 7.81617 33.436 8.36029 32.4139 9.09558C31.8919 7.03676 31.1787 4.94853 30.2228 3.39706C32.2742 4.14706 34.2007 5.53676 35.8772 7.54411H35.8845ZM46.0389 7.34559C47.811 7.34559 49.2448 8.78676 49.2448 10.5515C49.2448 11.2206 49.0316 11.8456 48.6787 12.3603C49.4875 12.7941 50.0978 13.5074 50.3992 14.3676C49.9581 14.9338 49.4066 15.4191 48.7889 15.7794V15.5956C48.7889 14.5882 47.9654 13.7647 46.9581 13.7647H46.5389C46.5389 13.7647 46.5316 13.7353 46.5242 13.7279C46.3331 13.0956 46.0536 12.5 45.7375 11.9338H46.0463C46.8036 11.9338 47.4213 11.3162 47.4213 10.5588C47.4213 9.80147 46.8036 9.18382 46.0463 9.18382C45.2889 9.18382 44.7228 9.75 44.6786 10.4706C44.2301 9.96323 43.7228 9.50735 43.186 9.11029C43.7154 8.06618 44.7963 7.35294 46.0463 7.35294L46.0389 7.34559ZM41.4507 22.8603V20.1838C41.4507 19.1765 40.6272 18.3529 39.6198 18.3529H35.9507C34.9434 18.3529 34.1198 19.1765 34.1198 20.1838V22.8603C33.4287 22.4632 32.811 21.9559 32.2889 21.3603V20.1838C32.2889 18.5809 33.3184 17.2206 34.7448 16.7279C34.3478 16.1471 34.1198 15.4412 34.1198 14.6838C34.1198 12.6544 35.7595 11.0147 37.7889 11.0147C39.8184 11.0147 41.4581 12.6544 41.4581 14.6838C41.4581 15.4412 41.2301 16.1544 40.8331 16.7279C42.2669 17.2206 43.2889 18.5809 43.2889 20.1838V21.3603C42.7669 21.9559 42.1419 22.4706 41.4581 22.8603H41.4507ZM21.6198 7.51471C21.1787 6.19853 20.5022 4.99264 19.6272 3.95588C20.9434 3.50735 22.2816 3.17647 23.6566 2.97794C22.8698 4.11029 22.186 5.66912 21.6198 7.51471ZM12.2448 21.9632C14.7448 21.7279 17.0095 20.6471 18.7301 19.0074C19.0978 18.6618 19.4287 18.2868 19.7522 17.8971C19.5757 19.8456 19.4801 21.8529 19.4581 23.8529H12.1419C12.1566 23.2279 12.1934 22.5956 12.2522 21.9706L12.2448 21.9632ZM34.1125 25.6838H41.4213C41.3478 28.5074 40.9213 31.2353 40.1419 33.8088C38.7301 34.375 37.4507 35.2206 36.3992 36.2794C35.4066 35.9779 34.3919 35.7279 33.3698 35.5221C33.8257 32.4191 34.0831 29.0368 34.1198 25.6838H34.1125ZM44.2007 33.0147C43.5169 33.0147 42.8478 33.0882 42.2007 33.2059C42.8331 30.7941 43.186 28.2794 43.2522 25.6838H48.7595C48.6492 28.3603 48.061 30.9412 47.0169 33.3971C46.1198 33.1544 45.1787 33.0221 44.2007 33.0221V33.0147ZM48.7522 23.8456H43.2669C45.0463 22.5147 46.3257 20.5588 46.7816 18.3088C47.1125 18.2721 47.436 18.2132 47.7522 18.1323C48.3404 19.9853 48.6713 21.8971 48.7522 23.8456ZM39.8625 7.09559C39.7742 7.2353 39.6787 7.36764 39.5978 7.52206C39.0978 7.42647 38.5904 7.375 38.0757 7.36029C37.311 6.32353 36.4875 5.40441 35.6125 4.60294C37.1051 5.25735 38.5242 6.10294 39.8698 7.09559H39.8625ZM30.8698 10.5221C30.2963 11.1838 29.8184 11.9191 29.4507 12.7206C28.4654 12.8015 27.6051 12.8456 26.7816 12.8456C25.311 12.8456 23.811 12.7279 22.2889 12.5147C23.4213 6.30882 25.2889 2.75735 26.7816 2.75735C27.9507 2.75735 29.6419 5.16911 30.8625 10.5147L30.8698 10.5221ZM10.4066 21.9779C10.3551 22.6029 10.3257 23.2279 10.3037 23.8529H4.81101C4.86248 22.6471 5.00218 21.4485 5.25218 20.2647C6.75954 21.2426 8.51689 21.8456 10.4066 21.9779ZM4.81836 25.6838H10.3037C10.4066 29.5882 11.1492 33.3529 12.4875 36.7059C12.3625 36.7059 12.2375 36.6838 12.1125 36.6838C10.9213 36.6838 9.78895 36.9191 8.73748 37.3382C6.32571 33.8897 4.98013 29.8971 4.81101 25.6838H4.81836ZM6.61248 50.6912V49.5147C6.61248 47.9118 7.64189 46.5515 9.06836 46.0588C8.6713 45.4779 8.44336 44.7721 8.44336 44.0147C8.44336 41.9853 10.0831 40.3456 12.1125 40.3456C14.1419 40.3456 15.7816 41.9853 15.7816 44.0147C15.7816 44.7721 15.5537 45.4853 15.1566 46.0588C16.5904 46.5515 17.6125 47.9118 17.6125 49.5147V50.6912C17.0904 51.2868 16.4654 51.8015 15.7816 52.1912V49.5147C15.7816 48.5074 14.9581 47.6838 13.9507 47.6838H10.2816C9.27424 47.6838 8.45071 48.5074 8.45071 49.5147V52.1912C7.75954 51.7941 7.14189 51.2868 6.61983 50.6912H6.61248ZM17.1492 38.1985C18.2375 37.8382 19.3551 37.5441 20.5022 37.3088C21.2081 41.2132 22.2669 44.5221 23.6492 46.5294C22.8478 46.4118 22.0537 46.25 21.2742 46.0441C21.2742 45.9779 21.2816 45.9118 21.2816 45.8456C21.2816 42.6544 19.6345 39.8382 17.1492 38.1912V38.1985ZM29.9213 46.5221C31.3036 44.5147 32.3551 41.2206 33.061 37.3235C33.7522 37.4632 34.436 37.6324 35.1125 37.8162C33.9066 39.5809 33.1934 41.7132 33.1934 44.0147C33.1934 44.6029 33.2522 45.1765 33.3478 45.7426C32.2228 46.0956 31.0831 46.3529 29.9213 46.5147V46.5221ZM36.8698 49.5221C36.8698 47.0441 38.5022 44.9559 40.7375 44.2721C40.0389 43.4632 39.6198 42.4191 39.6198 41.2721C39.6198 38.7426 41.6713 36.6912 44.2007 36.6912C46.7301 36.6912 48.7816 38.7426 48.7816 41.2721C48.7816 42.4191 48.3625 43.4632 47.6639 44.2721C49.8992 44.9632 51.5316 47.0515 51.5316 49.5147C51.0095 50.2132 50.3845 50.8382 49.7007 51.3456V49.5221C49.7007 47.4926 48.061 45.8529 46.0316 45.8529H42.3625C40.3331 45.8529 38.6934 47.4926 38.6934 49.5221V51.3456C38.0022 50.8309 37.3845 50.2059 36.8625 49.5221H36.8698Z" fill="#174034"/>
</svg>
