<svg width="67" height="62" viewBox="0 0 67 62" fill="none" xmlns="http://www.w3.org/2000/svg">
<path fill-rule="evenodd" clip-rule="evenodd" d="M8.22039 44.0149C10.9704 38.1061 13.6609 32.1676 16.3812 26.2439L8.97849 22.9736L0.193359 42.0973L7.59606 45.3676L8.22039 44.0074V44.0149Z" fill="#174034"/>
<path fill-rule="evenodd" clip-rule="evenodd" d="M15.9058 28.5993L8.83008 44.0067L14.2483 47.1432L14.2781 47.106L14.4862 46.8756L17.9125 43.4493C18.522 42.8398 19.3247 42.5351 20.1274 42.5351C20.9301 42.5351 21.7328 42.8398 22.3422 43.4493C22.9443 44.0513 23.249 44.854 23.2564 45.6567C23.2564 45.9168 23.2267 46.1844 23.1598 46.4371C23.6429 46.1621 24.1781 46.0209 24.7206 46.0209C25.5233 46.0209 26.326 46.3256 26.9355 46.9351L26.9503 46.9499C27.5449 47.552 27.8497 48.3472 27.8497 49.1425C27.8497 49.4844 27.7976 49.8263 27.6862 50.1533C28.0801 49.9824 28.5037 49.9006 28.9199 49.9006C29.7226 49.9006 30.5254 50.2053 31.1348 50.8148C31.7443 51.4243 32.049 52.227 32.049 53.0297C32.049 53.3047 32.0118 53.5797 31.9449 53.8472C32.4058 53.5945 32.9186 53.4756 33.4389 53.4756C34.2416 53.4756 35.0443 53.7803 35.6537 54.3898C35.8098 54.5533 35.951 54.7243 36.0699 54.9101C36.1814 55.081 36.2706 55.2668 36.3449 55.4526C36.9618 56.0695 37.5713 56.6939 38.1956 57.2959L38.2997 57.3999L38.8051 57.9054C39.3105 58.4108 39.972 58.6635 40.6335 58.6635C41.2949 58.6635 41.949 58.4256 42.4544 57.9276C42.9598 57.4297 43.2125 56.7682 43.2199 56.1067C43.2199 55.4452 42.9747 54.7837 42.4767 54.2783L39.2213 51.1047C39.1098 51.0006 39.1098 50.8222 39.2213 50.7182C39.3253 50.6067 39.5037 50.6067 39.6078 50.7182L42.8706 53.8993C43.4281 54.4641 44.1267 54.7912 44.8179 54.8209C45.4645 54.8506 46.1186 54.6128 46.6686 54.0776C47.1591 53.5945 47.4193 52.9554 47.4341 52.3087C47.449 51.6695 47.2335 51.0229 46.7801 50.5175L43.4429 47.2695C43.3314 47.1655 43.3314 46.9871 43.4429 46.8831C43.547 46.779 43.7253 46.7716 43.8294 46.8831L47.1666 50.1385C47.7983 50.7702 48.5044 51.3128 49.2402 51.506H49.2476C49.9463 51.6844 50.6895 51.5283 51.4328 50.7925C51.8787 50.354 52.124 49.7891 52.1835 49.2094C52.2429 48.6297 52.1017 48.0276 51.7598 47.5222C49.4855 45.2182 46.9362 42.9662 44.2456 40.9371C41.674 38.9972 38.976 37.2506 36.2558 35.8162C35.8172 35.5857 35.5274 35.3999 35.3118 35.2587C35.0963 35.1175 34.9699 35.0357 34.8585 35.0209C34.6801 34.9912 34.3976 35.1026 33.7139 35.3851L33.6321 35.4148C32.1828 35.9945 31.9226 36.5817 31.4321 37.6743C31.2835 38.0087 31.1125 38.3952 30.8672 38.856C30.6963 39.1831 30.503 39.4952 30.2875 39.7776C29.6335 40.6472 28.7936 41.2939 27.8794 41.606C26.9503 41.9182 25.9395 41.8736 24.9585 41.3682C24.7503 41.2641 24.5422 41.1303 24.3341 40.9668L24.3193 40.952C23.9328 40.6175 23.7767 40.2013 23.7618 39.6959C23.747 39.2351 23.851 38.7074 23.9922 38.0979L24.2003 37.1614C24.9659 33.7574 25.3301 32.1371 26.2814 31.0594C27.1585 30.0783 28.4666 29.6249 30.9639 28.7479L32.3091 28.2797L31.0085 27.6553C30.5179 27.4547 30.1909 27.3729 29.849 27.3803C29.4922 27.3803 29.0983 27.477 28.4963 27.6182L24.7726 28.7256C24.2375 28.8891 23.8213 29.0006 23.4051 29.0898C22.9889 29.179 22.5652 29.2459 22.0003 29.3053L18.9456 29.6324C17.972 29.7364 17.7936 29.6324 17.2808 29.3425L17.0281 29.2013L15.9355 28.6141L15.9058 28.5993Z" fill="#174034"/>
<path fill-rule="evenodd" clip-rule="evenodd" d="M36.4932 35.318C39.2432 36.7674 41.9709 38.5289 44.5574 40.4836C47.2182 42.4978 49.7452 44.7126 52.0047 46.9944L57.5567 43.9917L50.481 28.5917L49.9756 28.8667C49.2249 29.2755 48.831 29.491 48.3776 29.5802C47.8871 29.6768 47.3817 29.6099 46.3337 29.4836L45.9026 29.4316C44.9067 29.3052 43.9925 29.1714 43.0337 28.9782C42.0749 28.7849 41.079 28.5322 39.9121 28.1903L39.2655 27.9971C36.8202 27.2613 36.6864 27.2241 34.3898 28.0789L33.7209 28.3241L33.0891 28.5545C32.331 28.8295 31.6918 29.0525 31.1195 29.2457C28.7114 30.0856 27.4479 30.5241 26.6675 31.4012C25.8053 32.3674 25.4486 33.9505 24.7053 37.2579L24.4972 38.1944C24.3709 38.7667 24.2668 39.2572 24.2817 39.6512C24.2891 40.0005 24.3932 40.2829 24.6459 40.5059C24.8243 40.6397 25.0026 40.7512 25.1884 40.8478C26.0283 41.2863 26.8905 41.3234 27.6857 41.0559C28.4959 40.7883 29.2391 40.2086 29.8337 39.4207C30.027 39.1606 30.2053 38.8782 30.3614 38.5809C30.5844 38.1498 30.7553 37.7707 30.9114 37.4289C31.4614 36.2099 31.7587 35.5484 33.4087 34.887L33.4905 34.8572C34.2783 34.5451 34.5979 34.4113 34.9175 34.4633C35.1479 34.493 35.3114 34.6045 35.5939 34.7829C35.7945 34.9167 36.0695 35.0951 36.4932 35.318Z" fill="#174034"/>
<path fill-rule="evenodd" clip-rule="evenodd" d="M50.0054 26.2501C52.7256 32.1738 55.4385 38.0974 58.1662 44.0211L58.7905 45.3812L66.1932 42.111L57.4081 22.9873L50.0054 26.2576V26.2501Z" fill="#174034"/>
<path fill-rule="evenodd" clip-rule="evenodd" d="M38.5001 59.556C38.5299 58.9242 38.3218 58.2776 37.8832 57.7796L37.7569 57.6533L36.5528 56.4492C36.5677 56.7242 36.5454 57.0066 36.4859 57.2816C36.367 57.8465 36.0846 58.3817 35.6461 58.8202L33.6616 60.8046L34.0778 61.2208C34.5832 61.7262 35.2522 61.9938 35.9285 62.0012C36.5826 62.0161 37.2441 61.7783 37.742 61.2877C38.2251 60.8121 38.4778 60.1877 38.5076 59.556H38.5001Z" fill="#174034"/>
<path fill-rule="evenodd" clip-rule="evenodd" d="M32.4945 61.191L35.2519 58.4336C35.6087 58.0768 35.8391 57.6309 35.9432 57.1701C36.0472 56.687 36.0175 56.1816 35.8391 55.7133C35.7797 55.5424 35.6979 55.3789 35.5938 55.2228C35.4972 55.0741 35.3783 54.9255 35.2445 54.7917C34.7465 54.2937 34.0776 54.041 33.4161 54.041C32.7547 54.041 32.0932 54.2937 31.5878 54.7917L28.7932 57.5863C28.3175 58.0843 28.0797 58.7309 28.0871 59.3701C28.0871 60.0316 28.3398 60.6931 28.8378 61.191C29.3357 61.689 30.0047 61.9417 30.6661 61.9417C31.3276 61.9417 31.9891 61.689 32.4945 61.191Z" fill="#174034"/>
<path fill-rule="evenodd" clip-rule="evenodd" d="M27.3141 58.2918L30.785 54.8208C31.2607 54.3229 31.4985 53.6837 31.4985 53.0371C31.4985 52.3904 31.2458 51.7141 30.7478 51.2087C30.2499 50.7033 29.581 50.458 28.9195 50.458C28.258 50.458 27.5965 50.7107 27.0911 51.2087L23.6201 54.6796C23.1445 55.1776 22.9141 55.8242 22.9141 56.4634C22.9141 57.1249 23.1668 57.7864 23.6647 58.2844C24.1627 58.7898 24.8316 59.035 25.4931 59.035C26.1546 59.035 26.8161 58.7823 27.3215 58.2844L27.3141 58.2918Z" fill="#174034"/>
<path fill-rule="evenodd" clip-rule="evenodd" d="M23.1151 54.4123L26.586 50.9413C27.0617 50.4434 27.2921 49.7967 27.2921 49.1576C27.2921 48.5035 27.0468 47.8495 26.5488 47.3515L26.534 47.3366C26.036 46.8386 25.3671 46.5859 24.7056 46.5859C24.0441 46.5859 23.3826 46.8386 22.8772 47.3366L19.4063 50.8076C18.9306 51.3055 18.7002 51.9521 18.7002 52.5913C18.7002 53.2528 18.9529 53.9069 19.4509 54.4123L19.4657 54.4272C19.9637 54.9177 20.6252 55.163 21.2793 55.163C21.9333 55.163 22.6022 54.9103 23.1076 54.4123H23.1151Z" fill="#174034"/>
<path fill-rule="evenodd" clip-rule="evenodd" d="M18.5217 50.9191L21.9927 47.4482C22.4684 46.9502 22.7062 46.3036 22.7062 45.657C22.7062 44.9955 22.4535 44.3414 21.9481 43.8435C21.4501 43.338 20.7812 43.0928 20.1197 43.0928C19.4582 43.0928 18.7967 43.3455 18.2913 43.8435L14.865 47.2698L14.694 47.4556L14.5528 47.6489L14.5379 47.6712C14.2035 48.1766 14.0697 48.7712 14.1217 49.3509C14.1812 49.9232 14.4265 50.4806 14.865 50.9191C15.3629 51.4171 16.0319 51.6698 16.6934 51.6698C17.3548 51.6698 18.0163 51.4171 18.5217 50.9191Z" fill="#174034"/>
<path d="M24.1479 28.8818C23.3006 27.7744 22.5425 26.5554 21.8884 25.2622C19.3986 20.3345 18.3209 14.1581 18.6479 7.66963L18.6999 6.5845L19.7702 6.70341C22.0074 6.94868 24.8168 6.76288 27.3662 5.72977C29.3135 4.94193 31.0972 3.65612 32.3236 1.69396L33.1857 0.311523L34.0479 1.69396C35.2817 3.66355 37.0655 4.94193 39.0053 5.72977C41.5547 6.76288 44.3716 6.94868 46.6013 6.70341L47.679 6.5845L47.731 7.66963C48.058 14.1581 46.9803 20.3345 44.4905 25.2622C43.8439 26.5406 43.108 27.7298 42.2756 28.8223C41.6067 28.6663 40.9006 28.4879 40.1202 28.2575C41.0939 27.0906 41.9486 25.775 42.6695 24.3406C44.8621 19.9926 45.8878 14.5669 45.7391 8.81423C43.4276 8.92571 40.7297 8.62842 38.2398 7.61761C36.3445 6.85207 34.5756 5.67774 33.1783 3.97571C31.781 5.67774 30.0121 6.85207 28.1168 7.61761C25.627 8.62842 22.929 8.92571 20.6175 8.81423C20.4689 14.5744 21.4871 19.9926 23.6871 24.3406C24.408 25.775 25.2628 27.0831 26.2364 28.2575L24.7202 28.7108C24.5047 28.7777 24.3114 28.8298 24.1256 28.8818H24.1479Z" fill="#174034"/>
<path d="M27.426 16.8043L31.1274 20.5057L38.9612 12.6719L41.124 14.8347L31.1274 24.8313L25.2632 18.9671L27.426 16.8043Z" fill="#174034"/>
</svg>
