<svg width="57" height="29" viewBox="0 0 57 29" fill="none" xmlns="http://www.w3.org/2000/svg">
<path d="M55.0801 9.37062C55.632 9.37062 56.0815 8.92114 56.0815 8.36926V4.00541C56.0815 1.79219 54.2893 0 52.076 0H17.023V3.00406C17.023 3.55594 16.5735 4.00541 16.0216 4.00541C15.4698 4.00541 15.0203 3.55594 15.0203 3.00406V0H4.00541C1.79219 0 0 1.79219 0 4.00541V8.36926C0 8.92114 0.449472 9.37062 1.00135 9.37062C3.80628 9.37062 6.07639 11.6464 6.07639 14.4513C6.07639 17.2563 3.80628 19.5264 1.00135 19.5264C0.449472 19.5264 0 19.9759 0 20.5277V24.8916C0 27.1048 1.79219 28.897 4.00541 28.897H15.026C15.026 28.2029 15.026 26.5586 15.026 25.8929C15.0374 25.3411 15.4925 24.903 16.0444 24.9087C16.5849 24.92 17.0173 25.3524 17.0287 25.8929C17.0116 26.5586 17.0401 28.2143 17.0287 28.897H52.0817C54.2949 28.897 56.0871 27.1048 56.0871 24.8916V20.522C56.0871 19.9702 55.6377 19.5207 55.0858 19.5207C48.3551 19.3045 48.3892 9.56975 55.0858 9.36493L55.0801 9.37062ZM20.6814 20.4424H37.5735C38.1254 20.4424 38.5748 20.8919 38.5748 21.4437C38.5748 21.9956 38.1254 22.4451 37.5735 22.4451H20.6814C20.1295 22.4394 19.6857 21.9842 19.6971 21.4267C19.7028 20.8862 20.1408 20.4481 20.6814 20.4424ZM19.68 14.4457C19.68 13.8938 20.1295 13.4443 20.6814 13.4443H35.9122C36.464 13.4443 36.9135 13.8938 36.9135 14.4457C36.9135 14.9975 36.464 15.447 35.9122 15.447H20.6814C20.1295 15.447 19.68 14.9975 19.68 14.4457ZM20.6814 8.44892C20.1295 8.44323 19.6857 7.98806 19.6971 7.43049C19.7028 6.88999 20.1408 6.4519 20.6814 6.44621H41.101C41.6529 6.45759 42.091 6.91275 42.0853 7.46463C42.0739 8.00514 41.6415 8.43754 41.101 8.44892H20.6814ZM16.0273 6.57707C16.5792 6.57707 17.0287 7.02654 17.0287 7.57842V12.1528C17.0287 12.7047 16.5792 13.1541 16.0273 13.1541C15.4755 13.1541 15.026 12.7047 15.026 12.1528V7.57842C15.026 7.02654 15.4755 6.57707 16.0273 6.57707ZM16.0273 22.3142C15.4755 22.3142 15.026 21.8648 15.026 21.3129V16.7385C15.026 16.1866 15.4755 15.7372 16.0273 15.7372C16.5792 15.7372 17.0287 16.1866 17.0287 16.7385V21.3129C17.0287 21.8648 16.5792 22.3142 16.0273 22.3142Z" fill="#174034"/>
</svg>
