<svg width="57" height="66" viewBox="0 0 57 66" fill="none" xmlns="http://www.w3.org/2000/svg">
<path fill-rule="evenodd" clip-rule="evenodd" d="M1.78185 43.5273H54.6049C55.4805 43.5273 56.1934 44.2402 56.1934 45.1158V63.922C56.1934 64.7976 55.4805 65.5105 54.6049 65.5105H1.78185C0.906241 65.5105 0.193359 64.7976 0.193359 63.922V45.1158C0.193359 44.2402 0.906241 43.5273 1.78185 43.5273Z" fill="#174034"/>
<path fill-rule="evenodd" clip-rule="evenodd" d="M2.7429 41.4893H53.6365C54.9305 41.4893 55.5969 40.5672 54.6671 39.6683L46.5542 31.7879C45.4616 30.7263 44.4697 30.8968 43.9583 30.8968H39.9058C39.6965 30.8968 39.5183 30.9898 39.3943 31.1603C38.8829 31.8654 38.3095 32.524 37.6741 33.1284C37.4804 33.3066 37.4262 33.5701 37.5191 33.8181C37.6199 34.0583 37.8368 34.2132 38.1003 34.2132H39.6888C43.2145 34.2132 43.2222 37.305 40.8666 37.305H15.505C13.1494 37.305 13.1649 34.2132 16.6828 34.2132H18.2713C18.5348 34.2132 18.7595 34.0583 18.8525 33.8181C18.9455 33.5779 18.8912 33.3066 18.6975 33.1284C18.0621 32.5318 17.4887 31.8731 16.9773 31.1603C16.8533 30.9898 16.6751 30.8968 16.4659 30.8968H12.4133C11.9019 30.8968 10.9023 30.7341 9.81748 31.7879L1.70457 39.6683C0.774721 40.5672 1.44111 41.4893 2.73515 41.4893H2.7429Z" fill="#174034"/>
<path fill-rule="evenodd" clip-rule="evenodd" d="M28.1894 10.9053C34.9076 10.9053 40.3549 16.3526 40.3549 23.0708C40.3549 29.7889 34.9076 35.2363 28.1894 35.2363C21.4713 35.2363 16.0239 29.7889 16.0239 23.0708C16.0239 16.3526 21.4713 10.9053 28.1894 10.9053ZM23.4549 19.9713C23.4549 17.8559 24.8497 16.2519 26.8334 15.6552V14.028C26.8334 13.7103 27.0891 13.4546 27.4068 13.4546H28.972C29.2897 13.4546 29.5454 13.7103 29.5454 14.028V15.601C29.9251 15.694 30.2893 15.8412 30.6303 16.0272C31.8701 16.7168 32.5907 17.9101 32.8309 19.2894C32.8619 19.4599 32.8154 19.6226 32.7069 19.7621C32.5984 19.8938 32.4435 19.9635 32.2652 19.9635H30.8317C30.576 19.9635 30.3513 19.8008 30.2816 19.5528C29.7237 17.6931 26.2677 17.5149 26.2677 19.7853C26.2677 21.0251 27.8485 21.4823 28.7938 21.831C30.9867 22.6291 32.9239 23.4737 32.9239 26.178C32.9239 28.2857 31.5291 29.8974 29.5454 30.494V32.1213C29.5454 32.439 29.2897 32.6947 28.972 32.6947H27.4068C27.0891 32.6947 26.8334 32.439 26.8334 32.1213V30.5483C26.446 30.4553 26.0895 30.3081 25.7486 30.1221C24.5088 29.4325 23.7881 28.2392 23.5479 26.8599C23.5169 26.6894 23.5634 26.5267 23.6719 26.3872C23.7804 26.2555 23.9354 26.1857 24.1136 26.1857H25.5471C25.8028 26.1857 26.0275 26.3485 26.0973 26.5964C26.6552 28.4561 30.1111 28.6343 30.1111 26.364C30.1111 25.0467 28.2979 24.5818 27.3061 24.2176C25.2062 23.4427 23.4549 22.5361 23.4549 19.9713Z" fill="#174034"/>
<path fill-rule="evenodd" clip-rule="evenodd" d="M8.98794 0.800781C13.1413 0.800781 16.5042 4.16372 16.5042 8.31704C16.5042 12.4704 13.1413 15.8333 8.98794 15.8333C4.83463 15.8333 1.47168 12.4704 1.47168 8.31704C1.47168 4.16372 4.83463 0.800781 8.98794 0.800781ZM6.05893 6.39536C6.05893 5.09357 6.91903 4.09399 8.14333 3.7298V2.72246C8.14333 2.52875 8.30605 2.36602 8.49977 2.36602H9.46836C9.66208 2.36602 9.8248 2.52875 9.8248 2.72246V3.69105C10.065 3.75304 10.2897 3.83828 10.4989 3.95451C11.2661 4.38069 11.7155 5.11682 11.8627 5.96918C11.8782 6.07766 11.855 6.17839 11.7852 6.25588C11.7155 6.34112 11.6225 6.37986 11.514 6.37986H10.6229C10.4602 6.37986 10.3285 6.27913 10.282 6.12415C9.93328 4.97734 7.80239 4.86111 7.80239 6.27138C7.80239 7.0385 8.77872 7.3252 9.36763 7.53442C10.7237 8.03034 11.9247 8.5495 11.9247 10.2232C11.9247 11.525 11.0646 12.5246 9.8403 12.8888V13.8961C9.8403 14.0898 9.67758 14.2526 9.48386 14.2526H8.51527C8.32155 14.2526 8.15883 14.0898 8.15883 13.8961V12.9275C7.91862 12.8655 7.6939 12.7803 7.48469 12.6641C6.71756 12.2379 6.26814 11.5018 6.12091 10.6494C6.10541 10.5409 6.12866 10.4402 6.1984 10.3627C6.26814 10.2775 6.36112 10.2387 6.46961 10.2387H7.36071C7.51569 10.2387 7.65516 10.3395 7.70165 10.4944C8.05034 11.6412 10.1812 11.7575 10.1812 10.3472C10.1812 9.53359 9.05768 9.24689 8.44553 9.02217C7.15149 8.54175 6.06667 7.98385 6.06667 6.39536H6.05893Z" fill="#174034"/>
<path fill-rule="evenodd" clip-rule="evenodd" d="M47.3908 0.800781C51.5441 0.800781 54.907 4.16372 54.907 8.31704C54.907 12.4704 51.5441 15.8333 47.3908 15.8333C43.2375 15.8333 39.8745 12.4704 39.8745 8.31704C39.8745 4.16372 43.2375 0.800781 47.3908 0.800781ZM44.4618 6.39536C44.4618 5.09357 45.3219 4.09399 46.5462 3.7298V2.72246C46.5462 2.52875 46.7089 2.36602 46.9026 2.36602H47.8712C48.0649 2.36602 48.2276 2.52875 48.2276 2.72246V3.69105C48.4678 3.75304 48.6926 3.83828 48.9018 3.95451C49.6689 4.38069 50.1183 5.11682 50.2655 5.96918C50.281 6.07766 50.2578 6.17839 50.1881 6.25588C50.1183 6.34112 50.0253 6.37986 49.9168 6.37986H49.0257C48.863 6.37986 48.7313 6.27913 48.6848 6.12415C48.3361 4.97734 46.2052 4.86111 46.2052 6.27138C46.2052 7.0385 47.1816 7.3252 47.7705 7.53442C49.1265 8.03034 50.3275 8.5495 50.3275 10.2232C50.3275 11.525 49.4674 12.5246 48.2431 12.8888V13.8961C48.2431 14.0898 48.0804 14.2526 47.8867 14.2526H46.9181C46.7244 14.2526 46.5617 14.0898 46.5617 13.8961V12.9275C46.3214 12.8655 46.0967 12.7803 45.8875 12.6641C45.1204 12.2379 44.671 11.5018 44.5237 10.6494C44.5082 10.5409 44.5315 10.4402 44.6012 10.3627C44.671 10.2775 44.764 10.2387 44.8724 10.2387H45.7635C45.9185 10.2387 46.058 10.3395 46.1045 10.4944C46.4532 11.6412 48.5841 11.7575 48.5841 10.3472C48.5841 9.53359 47.4605 9.24689 46.8484 9.02217C45.5543 8.54175 44.4695 7.98385 44.4695 6.39536H44.4618Z" fill="#174034"/>
</svg>
