<svg width="87" height="26" viewBox="0 0 87 26" fill="none" xmlns="http://www.w3.org/2000/svg">
<path d="M72.5867 17.4495C72.5867 17.4495 72.5867 17.4345 72.5792 17.427C71.6201 15.1268 69.3873 13.6357 66.8923 13.6357C66.188 13.6357 65.4912 13.7556 64.8318 13.9879C64.8169 13.9879 64.8019 14.0029 64.7869 14.0029C62.3593 14.887 60.7334 17.2172 60.7334 19.7947C60.7334 23.1963 63.4982 25.9611 66.8923 25.9611C70.2865 25.9611 73.0512 23.1963 73.0512 19.7947C73.0512 18.978 72.9014 18.1912 72.5867 17.4495ZM66.8923 23.4885C64.8543 23.4885 63.1985 21.8326 63.1985 19.7947C63.1985 17.7567 64.8543 16.1008 66.8923 16.1008C68.9303 16.1008 70.5862 17.7567 70.5862 19.7947C70.5862 21.8326 68.9303 23.4885 66.8923 23.4885Z" fill="#174034"/>
<path d="M86.1932 23.6535V25.9612H71.8599C73.6581 24.5077 74.8119 22.2824 74.8119 19.7948C74.8119 19.3977 74.782 19.0081 74.722 18.626L86.1932 23.6535Z" fill="#174034"/>
<path d="M41.4174 10.4732H31.3623C31.7819 8.07558 33.8723 6.25488 36.3898 6.25488C38.9073 6.25488 40.9978 8.08307 41.4174 10.4732Z" fill="#174034"/>
<path d="M61.9248 25.9605H50.6335L46.595 15.4708C46.4601 15.1337 46.138 14.9089 45.7708 14.9089H24.312C22.8585 13.0582 20.6107 11.8744 18.0857 11.8744C13.7175 11.8744 10.1735 15.4259 10.1735 19.7866C10.1735 20.0638 10.1885 20.341 10.211 20.6108L0.193359 16.8345V3.77491H10.1735V11.8145C10.1735 12.1516 10.3683 12.4663 10.6755 12.6087C10.9752 12.751 11.3423 12.7061 11.6046 12.4963L20.4309 5.32588C24.0423 2.39627 28.5378 0.70294 33.1683 0.515625V2.56111C30.5159 2.98069 28.4779 5.28841 28.4779 8.06067V11.3424C28.4779 11.8294 28.8675 12.2191 29.3545 12.2191H43.3957L61.7151 13.815C60.0142 15.291 58.9803 17.4639 58.9803 19.7941C58.9803 22.2816 60.1266 24.4994 61.9323 25.9605H61.9248Z" fill="#174034"/>
<path d="M48.7528 25.9614H23.0532C24.8514 24.5078 26.0053 22.2825 26.0053 19.795C26.0053 18.6861 25.7805 17.6296 25.3609 16.6631H45.1789L48.7603 25.9539L48.7528 25.9614Z" fill="#174034"/>
<path d="M68.8328 19.7944C68.8328 20.8659 67.9637 21.735 66.8923 21.735C65.8208 21.735 64.9517 20.8659 64.9517 19.7944C64.9517 18.723 65.8283 17.8613 66.8923 17.8613C67.9562 17.8613 68.8328 18.7305 68.8328 19.7944Z" fill="#174034"/>
<path d="M23.1956 16.3556C22.0792 14.7147 20.2061 13.6357 18.0857 13.6357C14.6915 13.6357 11.9268 16.4005 11.9268 19.7947C11.9268 23.1888 14.6915 25.9611 18.0857 25.9611C21.4798 25.9611 24.2446 23.1963 24.2446 19.7947C24.2446 18.5209 23.855 17.3371 23.1881 16.3556H23.1956ZM18.0857 22.3197C16.692 22.3197 15.5682 21.1883 15.5682 19.7947C15.5682 18.401 16.6995 17.2771 18.0857 17.2771C19.4718 17.2771 20.6032 18.4085 20.6032 19.7947C20.6032 21.1808 19.4793 22.3197 18.0857 22.3197Z" fill="#174034"/>
</svg>
