<svg width="92" height="35" viewBox="0 0 92 35" fill="none" xmlns="http://www.w3.org/2000/svg">
<path d="M85.4303 11.4293L65.2295 23.1779C64.4073 22.7704 63.4887 22.5408 62.5183 22.5408C59.133 22.5408 56.3848 25.2965 56.3848 28.6744C56.3848 32.0523 59.1404 34.8079 62.5183 34.8079C65.8962 34.8079 68.6519 32.0523 68.6519 28.6744C68.6519 28.304 68.6148 27.941 68.5556 27.5854L85.4303 11.4219V11.4293ZM62.5109 30.9559C61.2516 30.9559 60.2368 29.9337 60.2368 28.6818C60.2368 27.4299 61.259 26.4076 62.5109 26.4076C63.7628 26.4076 64.7851 27.4299 64.7851 28.6818C64.7851 29.9337 63.7628 30.9559 62.5109 30.9559Z" fill="#174034"/>
<path d="M62.5108 4.28164C69.4444 4.28164 75.7187 7.19286 80.1633 11.8523L83.9634 9.6448C78.7114 3.72606 71.0444 0 62.5108 0C52.1697 0 43.1101 5.47428 38.0654 13.682L26.791 15.5117L36.2876 17.0525C35.5098 18.8007 34.9098 20.6378 34.4875 22.549L13.872 24.2231L33.969 25.8528C33.8801 26.7788 33.8283 27.7195 33.8283 28.6751C33.8283 29.5122 33.8653 30.3345 33.9394 31.1493L0.967773 32.9346L34.4801 34.7494C34.4801 34.7494 34.4875 34.7865 34.4949 34.8087H38.8951C38.384 32.8457 38.1099 30.7937 38.1099 28.6751C38.1099 15.2228 49.0584 4.27423 62.5108 4.27423V4.28164Z" fill="#174034"/>
<path d="M86.7489 13.334L83.5784 16.3711C85.697 19.9861 86.9192 24.1936 86.9192 28.6827C86.9192 30.8013 86.6452 32.8606 86.134 34.8163H90.5342C90.9638 32.8384 91.1935 30.7865 91.1935 28.6827C91.1935 23.038 89.5638 17.7712 86.7415 13.334H86.7489Z" fill="#174034"/>
</svg>
