<svg width="81" height="75" viewBox="0 0 81 75" fill="none" xmlns="http://www.w3.org/2000/svg">
<path d="M49.1513 19.9433L40.1934 8.53742L31.2355 19.9433L26.658 16.351L37.9047 2.03496C38.4579 1.33014 39.2991 0.920898 40.1934 0.920898C41.0877 0.920898 41.9289 1.33014 42.4821 2.03496L53.7288 16.351L49.1513 19.9433Z" fill="#174034"/>
<path d="M64.7634 51.3043L61.1711 46.7268L72.577 37.7688L61.1711 28.8109L64.7634 24.2334L79.0794 35.4801C79.7843 36.0333 80.1935 36.8745 80.1935 37.7688C80.1935 38.6631 79.7843 39.5043 79.0794 40.0576L64.7634 51.3043Z" fill="#174034"/>
<path d="M15.6235 51.3043L1.30742 40.0576C0.602604 39.5043 0.193359 38.6631 0.193359 37.7688C0.193359 36.8745 0.602604 36.0333 1.30742 35.4801L15.6235 24.2334L19.2157 28.8109L7.80988 37.7688L19.2157 46.7268L15.6235 51.3043Z" fill="#174034"/>
<path d="M37.2832 62.3978V74.5842H43.1036V62.3978C43.1036 57.9794 42.0502 53.8036 40.1934 50.0977C38.3366 53.8036 37.2832 57.9794 37.2832 62.3978Z" fill="#174034"/>
<path d="M39.1854 48.263C34.3654 40.2373 25.5817 34.8564 15.5628 34.8564H3.10352V40.6768H15.5628C25.2634 40.6768 33.5014 47.0732 36.2828 55.872C36.8966 53.174 37.8819 50.62 39.1854 48.263Z" fill="#174034"/>
<path d="M37.2832 62.3974V74.5839H43.1036V45.4971C39.4658 50.1655 37.2832 56.0314 37.2832 62.3974Z" fill="#174034"/>
<path d="M37.2832 74.5846H43.1036V62.3982C43.1036 50.4239 52.8497 40.6778 64.8239 40.6778H77.2832V34.8574H64.8239C49.6364 34.8574 37.2832 47.2106 37.2832 62.3982V74.5846Z" fill="#174034"/>
<path d="M37.2832 45.498V52.4401C37.8061 50.9926 38.4503 49.5981 39.1854 48.2642C38.6095 47.3018 37.9653 46.3772 37.2832 45.498Z" fill="#174034"/>
<path d="M40.1934 46.5896C41.0649 45.2406 42.0274 43.9674 43.1036 42.7775V7.33984H37.2832V42.7775C38.3518 43.9598 39.3219 45.2406 40.1934 46.5896Z" fill="#174034"/>
</svg>
